<?xml version="1.0" encoding="UTF-8"?>
<svg width="16px" height="16px" viewBox="0 0 16 16" version="1.1" xmlns="http://www.w3.org/2000/svg" xmlns:xlink="http://www.w3.org/1999/xlink">
    <!-- Generator: Sketch 53.2 (72643) - https://sketchapp.com -->
    <title>策略部署</title>
    <desc>Created with Sketch.</desc>
    <g id="Style" stroke="none" stroke-width="1" fill="none" fill-rule="evenodd">
        <g id="other-icons-" transform="translate(-440.000000, -1399.000000)" fill="#FFFFFF" fill-rule="nonzero">
            <g id="策略部署" transform="translate(440.000000, 1399.000000)">
                <g id="分组" transform="translate(2.000000, 1.000000)">
                    <path d="M11.8868644,10.9810415 L11.4095457,11.1605014 C11.3440168,11.1850748 11.2904022,11.2468805 11.2904022,11.2967718 C11.2904022,11.3451738 11.3328471,11.5022943 11.3968867,11.5320802 L11.8563338,11.7495171 C11.9203735,11.779303 11.94867,11.8574909 11.9196288,11.9222752 L11.4400762,12.9863755 C11.4102904,13.0511598 11.3343364,13.0794564 11.2710414,13.0504151 L10.8108496,12.8329783 C10.74681,12.8031924 10.6030932,12.8702106 10.5651162,12.9037197 C10.5278838,12.9357395 10.5174588,13.0176507 10.5420321,13.0846689 L10.7170241,13.5724126 C10.7415975,13.6394308 10.7073437,13.7146402 10.6418148,13.7399581 L9.56654474,14.145046 C9.50101583,14.1696194 9.42655114,14.134621 9.40346708,14.0668581 L9.22698578,13.5813484 C9.20315708,13.5135855 9.05348306,13.457737 9.00508102,13.4547584 C8.95667897,13.4525245 8.89263934,13.5016711 8.86359811,13.5672001 L8.65137376,14.0378169 C8.62158788,14.1026012 8.5456339,14.1316424 8.48159427,14.1011119 L7.44057797,13.6103896 C7.37802763,13.5813484 7.3489864,13.5024158 7.37877228,13.4376315 L7.59099663,12.9677593 C7.6207825,12.9029751 7.55450894,12.7547904 7.52174448,12.717558 C7.49046931,12.679581 7.41004745,12.669156 7.34451852,12.6937293 L6.86719989,12.8731892 C6.80241561,12.8977625 6.72795092,12.8627641 6.70412223,12.7964906 L6.30797009,11.6966472 C6.28339675,11.6288843 6.31765051,11.5544196 6.38317942,11.5291016 L6.85975342,11.3503864 C6.92528234,11.3250684 6.98038621,11.1716711 6.98262015,11.1217798 C6.98634338,11.0733777 6.93719669,11.0078488 6.87315706,10.9773183 L6.4129653,10.7606261 C6.34967031,10.7300955 6.32137374,10.6526523 6.35041496,10.587868 L6.83071219,9.52376763 C6.86049807,9.45898335 6.93645205,9.42994212 6.99974702,9.46047264 L7.45993878,9.67716488 C7.52397842,9.70695076 7.66769525,9.63918789 7.70418295,9.60642343 C7.74215994,9.57440361 7.752585,9.49174781 7.7287563,9.42472959 L7.55227499,8.93773055 C7.5284463,8.86996769 7.56195541,8.795503 7.62748432,8.770185 L8.70275439,8.36509712 C8.76902796,8.34052377 8.84200336,8.37477752 8.86732134,8.44179574 L9.04231336,8.92953944 C9.06688671,8.9973023 9.21656072,9.05240617 9.26496277,9.05538476 C9.31410946,9.05910799 9.3781491,9.00847201 9.40719032,8.94294308 L9.61941468,8.47232627 C9.64845591,8.40754199 9.72440989,8.3792454 9.78844951,8.40828663 L10.8287212,8.89900892 C10.8927608,8.92879479 10.9203127,9.00698271 10.8912715,9.07176698 L10.6783025,9.5423838 C10.6500059,9.60716808 10.7155349,9.75460816 10.7475547,9.79332979 C10.7795745,9.83130678 10.8592517,9.84247648 10.9255253,9.8171585 L11.4013546,9.6376986 C11.4676282,9.61312525 11.5413482,9.64812365 11.5651769,9.71514187 L11.9620737,10.813496 C11.986647,10.8812588 11.9523933,10.9564682 11.8868644,10.9810415 Z M10.3298078,10.8038156 C10.0863083,10.1299102 9.35432039,9.78439403 8.69456328,10.0338507 C8.03406151,10.2825628 7.69673648,11.0316775 7.93949136,11.7055829 C8.18373553,12.380233 8.9157234,12.7257491 9.57622516,12.4770371 C10.2352376,12.228325 10.5733073,11.4792103 10.3298078,10.8038156 Z" id="形状"></path>
                    <path d="M11.5834615,8.37465548 C11.4939201,8.29883185 11.4009998,8.22687536 11.3049583,8.15904387 L11.3117282,5.79284837 L9.35046637,6.90068526 L9.34891309,7.44357847 C9.23393108,7.43364272 9.11755777,7.42857143 9,7.42857143 C8.99329548,7.42857143 8.9865948,7.42858792 8.97989802,7.42862088 L8.98173236,6.74970128 L6.27294883,5.09041798 L0.733725588,1.77616429 L0.726866585,4.10325278 L3.77235961,6.01527505 L3.77235961,3.81467181 L3.96784833,3.81467181 L3.96784833,6.13800683 L6.93603919,8.00149723 C6.8493315,8.05382929 6.76477092,8.10935901 6.68252077,8.16792304 L0.725905772,4.42923252 L0.71881893,6.83362075 L5.36741019,9.75166911 C5.32833884,9.83616628 5.29212893,9.92225738 5.25890478,10.0098181 L3.77235961,9.07678275 L3.77235961,11.1823257 L5.03184712,11.9357381 C5.04671257,12.0532228 5.06667393,12.1691188 5.09150273,12.2831978 L3.68871072,11.4440154 L3.57687089,11.4440154 L3.57687089,11.3771103 L0.5141729,9.54493419 C0.473239347,9.52000971 0.449051339,9.47591254 0.449051339,9.42798084 L0.455937712,6.99521879 L0.449051339,6.99089653 L0.455984091,6.97883441 L0.463667116,4.2646375 L0.449051339,4.25546385 L0.463765551,4.22986296 L0.471378731,1.54034032 C0.471378731,1.53424155 0.471800451,1.52817382 0.47261706,1.52218058 C0.457409056,1.49914421 0.449051339,1.47157006 0.449051339,1.44263921 C0.449051339,1.39328446 0.473374667,1.34787809 0.514537221,1.32221363 L2.63815082,0.0192483507 C2.67931337,-0.00641611689 2.72983105,-0.00641611689 2.77099361,0.0192483507 L11.3309339,5.26269649 C11.3720964,5.28836096 11.3964198,5.33376733 11.3964198,5.38312207 C11.3964198,5.40225566 11.3927642,5.42079584 11.385889,5.43782241 C11.4287091,5.4146237 11.4804793,5.41520602 11.52285,5.43956937 C11.5662582,5.4645293 11.5919085,5.50868917 11.5919085,5.55668904 L11.5834615,8.37465548 Z M6.50920172,8.29853171 L6.50920172,8.23166023 L6.59550434,8.23166023 C6.56642581,8.25356575 6.53765571,8.2758588 6.50920172,8.29853171 Z M11.2090979,8.09340096 L11.2452391,8.06999398 L11.2923402,8.15016837 C11.2648442,8.13090679 11.2370947,8.11198232 11.2090979,8.09340096 Z M3.57687089,11.0653863 L3.57687089,8.95408356 L0.717858077,7.15961403 L0.711398196,9.35129012 L3.57687089,11.0653863 Z M6.82833682,5.10828025 L9.16725592,6.50747524 L11.0016334,5.38312207 L2.7036367,0.301557494 L0.843837656,1.44263921 L6.82833682,5.10828025 Z" id="合并形状" stroke="#FFFFFF" stroke-width="0.5"></path>
                </g>
            </g>
        </g>
    </g>
</svg>