<?xml version="1.0" encoding="UTF-8"?>
<svg width="80px" height="80px" viewBox="0 0 80 80" version="1.1" xmlns="http://www.w3.org/2000/svg" xmlns:xlink="http://www.w3.org/1999/xlink">
    <!-- Generator: Sketch 53.2 (72643) - https://sketchapp.com -->
    <title>防火墙</title>
    <desc>Created with Sketch.</desc>
    <g id="Templates-模版页面" stroke="none" stroke-width="1" fill="none" fill-rule="evenodd">
        <g id="应用中心-copy-2" transform="translate(-1192.000000, -634.000000)" fill-rule="nonzero">
            <g id="应用app" transform="translate(595.000000, 206.000000)">
                <g id="防火墙" transform="translate(597.000000, 428.000000)">
                    <path d="M10.7089083,10.8169873 L10.293262,10.0352703 L22.6545283,3.46266844 L22.7798317,3.69832994 L23.1830127,3 L69.0823591,29.5 L68.8993464,29.8169873 L69,29.8169873 L69,70.8169873 L68.323865,70.8169873 L68.4178928,70.9938278 L56,77.5965386 L56,77.8169873 L55.6672956,77.8169873 L55.283321,78.4820508 L54.1313972,77.8169873 L54,77.8169873 L54,77.7411251 L10.25,52.4820508 L10.6339746,51.8169873 L10,51.8169873 L10,10.8169873 L10.7089083,10.8169873 Z M13.7323088,10.4718368 L55.9881226,34.8682422 L65.5627218,29.7773375 L23.306908,5.38093208 L13.7323088,10.4718368 Z M54,75.431724 L54,63.7411251 L41.1410162,56.3169873 L40.5,56.3169873 L40.5,55.9468965 L27.5,48.441343 L27.5,60.1319419 L54,75.431724 Z M12,51.1830127 L25.5,58.9772413 L25.5,47.2866424 L12,39.4924138 L12,51.1830127 Z M54,61.431724 L54,50.7411251 L42.5,44.101597 L42.5,54.7921959 L54,61.431724 Z M40.5,53.6374954 L40.5,42.9468965 L12,26.4924138 L12,37.1830127 L40.5,53.6374954 Z M56,75.3313985 L67,69.4825947 L67,58.2673566 L56.1736789,64.0359013 L56,63.7092588 L56,75.3313985 Z M56.2063029,37.0173738 L56.0823591,37.2320508 L56,37.1845008 L56,48.3313985 L67,42.4825947 L67,31.2782633 L56.2063029,37.0173738 Z M56,50.5965386 L56,61.8631079 L67,56.0143041 L67,44.7477348 L56,50.5965386 Z M54,48.431724 L54,36.0298002 L28.5,21.3073684 L28.5,33.7092921 L54,48.431724 Z M26.5,32.5545916 L26.5,20.1526678 L12,11.7810889 L12,24.1830127 L26.5,32.5545916 Z" id="合并形状" fill="#FFFFFF"></path>
                    <rect id="矩形" fill="#000000" opacity="0" x="0" y="0" width="80" height="80"></rect>
                </g>
            </g>
        </g>
    </g>
</svg>