<?xml version="1.0" encoding="UTF-8"?>
<svg width="304px" height="276px" viewBox="0 0 304 276" version="1.1" xmlns="http://www.w3.org/2000/svg" xmlns:xlink="http://www.w3.org/1999/xlink">
    <!-- Generator: Sketch 53.2 (72643) - https://sketchapp.com -->
    <title>功能开发中</title>
    <desc>Created with Sketch.</desc>
    <defs>
        <path d="M72.4640625,5.68434189e-14 C44.0234375,12.5031702 25.5859375,22.6745357 17.1515625,30.5140964 C8.7171875,38.3536571 3.83958333,50.9302083 2.51875,68.24375 L0,129.68125 C1.85520833,138.407292 5.62291667,143.471354 11.303125,144.873438 C16.9833333,146.275521 24.8520833,146.970833 34.909375,146.959375 L167.259375,147.553125 C171.425,147.032292 175.188021,145.088021 178.548437,141.720313 C185.540366,134.713212 186.605514,127.136096 186.853125,125.364063 C187.2125,122.792188 186.627083,103.752083 185.096875,68.24375 C180.580208,45.9322917 173.729167,32.3401042 164.54375,27.4671875 C155.358333,22.5942708 138.126562,13.634375 112.848437,0.5875 L72.4640625,5.68434189e-14 Z" id="path-1"></path>
        <rect id="path-3" x="0" y="0.339458374" width="123.2" height="84" rx="6.4"></rect>
        <linearGradient x1="50%" y1="2.47307855%" x2="50%" y2="100%" id="linearGradient-5">
            <stop stop-color="#518AF3" stop-opacity="0" offset="0%"></stop>
            <stop stop-color="#518AF3" stop-opacity="0.0993498689" offset="15.0628167%"></stop>
            <stop stop-color="#518AF3" stop-opacity="0.33164882" offset="37.7085093%"></stop>
            <stop stop-color="#A6C5FD" stop-opacity="0.191296984" offset="100%"></stop>
        </linearGradient>
        <polygon id="path-6" points="0.727587938 0.29151888 11.8216 0.29151888 11.8216 11.70968 0.727587938 11.70968"></polygon>
        <polygon id="path-8" points="0.721006096 0.1592 12.1949355 0.1592 12.1949355 20.7997028 0.721006096 20.7997028"></polygon>
    </defs>
    <g id="Templates-模版页面" stroke="none" stroke-width="1" fill="none" fill-rule="evenodd">
        <g id="开发中效果" transform="translate(-874.000000, -363.000000)">
            <g id="功能开发中" transform="translate(867.000000, 339.000000)">
                <g id="矩形" transform="translate(74.400000, 146.400000)">
                    <mask id="mask-2" fill="white">
                        <use xlink:href="#path-1"></use>
                    </mask>
                    <use id="Mask" fill="#F59577" xlink:href="#path-1"></use>
                    <path d="M-0.4,-4.4 L-0.4,69.2363874 C72.4460373,76.1905832 121.726793,78.5209505 147.420721,76.229706 C172.574488,73.9866302 186.396936,71.6661819 188.4,69.4564811 L188.4,-4.4 L-0.4,-4.4 Z" stroke="#979797" stroke-width="0.8" fill="#659BFE" mask="url(#mask-2)"></path>
                    <path d="M77.053125,1.81875 C80.921875,11.8479167 80.5104167,21.165625 75.81875,29.771875 C68.78125,42.68125 62.315793,32.7101712 52.06875,60.734375 C45.237388,79.4171775 42.7332213,85.1557192 44.55625,77.95 C-5.63333333,74.6915358 -29.5520833,71.5352531 -27.2,68.4811518 C-24.8479167,65.4270506 -19.2479167,31.6666667 -10.4,-32.8 C23.9520833,-36.7 41.9635417,-38.0333333 43.634375,-36.8 C45.3052083,-35.5666667 56.4447917,-22.69375 77.053125,1.81875 Z" id="路径-23" fill="#4D7ED7" mask="url(#mask-2)"></path>
                </g>
                <path d="M77.1523438,212.046875 C83.5937817,213.516687 89.2963859,214.458874 94.2601563,214.873438 C99.2239266,215.288001 106.57627,215.21248 116.317188,214.646875 L115.113281,217.645312 C105.643225,218.444988 98.5299441,218.690561 93.7734375,218.382031 C89.0169309,218.073501 83.2398476,217.069595 76.4421875,215.370313 L77.1523438,212.046875 Z" id="路径-24" fill="#FFFFFF" opacity="0.746675037"></path>
                <path d="M224.711719,209.776563 C233.188373,211.757252 239.740977,212.96819 244.369531,213.409375 C248.998085,213.85056 254.049908,213.876342 259.525,213.486719 L259.604688,216.55625 C253.430347,216.743937 248.178524,216.630916 243.849219,216.217187 C239.519914,215.803459 232.971476,214.734709 224.203906,213.010937 L224.711719,209.776563 Z" id="路径-24-copy" fill="#FFFFFF" opacity="0.746675037" transform="translate(241.904297, 213.210335) scale(-1, 1) translate(-241.904297, -213.210335) "></path>
                <path d="M142.781892,151.471991 C143.326391,153.27326 144.070709,154.69093 145.014844,155.725 C147.040625,157.94375 148.533594,161.72814 151.098437,163.080469 C153.663281,164.432798 159.656686,168.23125 165.201563,168.022656 C170.746439,167.814063 175.871094,166.697656 180.057813,163.56875 C184.244531,160.439844 185.728125,157.851563 187.188281,155.1125 C188.161719,153.286458 189.13151,151.028125 190.097656,148.3375 L192.4375,149.446875 C192.226042,150.440104 191.521615,152.218229 190.324219,154.78125 C188.528125,158.625781 185.176563,163.713281 181.485156,165.95 C177.79375,168.186719 172.924219,170.522656 168.4,170.653125 C163.875781,170.783594 158.99375,170.332031 152.560938,166.621094 C146.128125,162.910156 144.453906,159.851562 143.152344,158.019531 C142.284635,156.798177 141.114063,154.117187 139.640625,149.976562 L139.640625,149.976562 C140.842236,149.484576 142.215168,150.05984 142.707154,151.261451 C142.735388,151.330407 142.760327,151.400667 142.781888,151.471993 Z" id="路径-25" fill="#FFFFFF" opacity="0.723772321"></path>
                <ellipse id="椭圆形" fill="#F49378" cx="185.2" cy="108.8" rx="6.8" ry="7.2"></ellipse>
                <ellipse id="椭圆形" fill="#E86271" cx="183.6" cy="108.8" rx="6" ry="4.8"></ellipse>
                <ellipse id="椭圆形" fill="#F49378" cx="146.8" cy="108.8" rx="6.8" ry="7.2"></ellipse>
                <ellipse id="椭圆形" fill="#E86271" cx="147.6" cy="108.8" rx="6" ry="4.8"></ellipse>
                <path d="M152.065625,87.275 C154.75,89.0421875 158.995833,89.8757812 164.803125,89.7757812 C170.610417,89.6757812 175.326563,88.8421875 178.951563,87.275 L186.5,98.2796875 L186.5,147.436209 C184.471822,152.662073 182.53901,156.111462 180.701562,157.784375 C178.602254,159.695701 174.214844,162.232031 171.091406,162.728125 C161.639939,164.229296 158.740625,161.905469 154.63125,159.696875 C150.521875,157.488281 149.042187,154.75625 147.0125,150.35 C145.659375,147.4125 144.921875,131.26944 144.8,101.920819 L152.065625,87.275 Z" id="路径-17" fill="#F59577"></path>
                <g id="矩形" transform="translate(144.800000, 87.275000)"></g>
                <path d="M145.461719,100.310937 L152.496478,88.2046875 C156.129224,89.6177083 160.202013,90.3242188 164.714844,90.3242188 C169.227675,90.3242188 173.918428,89.6177083 178.787103,88.2046875 L186.698438,99.80625 L186.647656,88.08125 L191.315625,79.696875 C195.128646,72.865625 195.748437,69.3471354 193.175,69.1414063 C190.601563,68.9356771 186.836326,69.119558 181.87929,69.6930491 C184.363409,67.3575789 185.057031,65.6169271 183.960156,64.4710937 C182.863281,63.3252604 179.502993,63.4546875 173.87929,64.859375 C164.520957,67.2688287 158.458457,70.067787 155.69179,73.25625 C151.54179,78.0389445 146.6125,82.1453125 145.465625,88.446875 C144.967451,91.1841178 144.569221,98.2894109 145.363665,100.825 C145.646896,101.728973 145.67958,101.557619 145.461719,100.310937 Z" id="路径-16" fill="#70604D"></path>
                <rect id="矩形" fill="#EBEAFF" transform="translate(167.200000, 294.800000) scale(1, -1) translate(-167.200000, -294.800000) " x="105.6" y="292" width="123.2" height="5.6" rx="1.6"></rect>
                <rect id="矩形" fill="#EBEAFF" x="105.6" y="208.8" width="123.2" height="84" rx="6.4"></rect>
                <g id="路径-19" transform="translate(105.600000, 208.460542)">
                    <mask id="mask-4" fill="white">
                        <use xlink:href="#path-3"></use>
                    </mask>
                    <use id="Mask" fill="#EBEAFF" xlink:href="#path-3"></use>
                    <path d="M27.971875,-4 C19.6785466,-1.42684128 17.4879216,11.7144365 21.4,35.4238334 C25.3120784,59.1332302 32.8454117,78.3717719 44,93.1394584 L-26.8,100.446365 L-41.6,16.1118584 L27.971875,-4 Z" fill="#D5D8FE" mask="url(#mask-4)"></path>
                </g>
                <circle id="椭圆形" fill="#FFFFFF" cx="166.4" cy="250.4" r="6.4"></circle>
                <path d="M186.114062,132.8 L186.114062,145.996094 L171.2,145.996094 C174.926562,145.18151 177.914323,143.513802 180.163281,140.992969 C182.41224,138.472135 184.395833,135.741146 186.114062,132.8 Z" id="路径-21" fill="#E86271"></path>
                <path d="M165.6,122.4 C167.528125,122.439844 168.445313,118.338281 168,116 C167.554688,113.661719 166.925483,109.6 165.6,109.6 C164.274517,109.6 163.55,113.267969 163.2,116 C162.85,118.732031 163.671875,122.360156 165.6,122.4 Z" id="椭圆形" fill="#E86271"></path>
                <circle id="椭圆形" fill="#3A3A3A" cx="175.2" cy="108.8" r="1.6"></circle>
                <circle id="椭圆形" fill="#3A3A3A" cx="156" cy="108.8" r="1.6"></circle>
                <path d="M169.305078,127.2 C169.088274,128.184574 168.219655,128.935485 166.699219,129.452734 C165.725521,129.783984 164.559115,129.811198 163.2,129.534375" id="路径-22" stroke="#3A3A3A" stroke-width="1.6" transform="translate(166.252539, 128.461704) rotate(18.000000) translate(-166.252539, -128.461704) "></path>
                <polygon id="矩形" fill="url(#linearGradient-5)" opacity="0.551339286" points="4.8 20.7 312.8 20.7 225.41875 293.384663 106.2 293.5"></polygon>
                <g id="分组" transform="translate(47.200000, 64.800000)">
                    <path d="M15.5955891,24.0114396 C16.8290194,23.2582104 18.0174789,22.4472804 19.0298988,21.3915118 C19.6833209,20.7104086 20.2748601,19.9840804 20.7902948,19.1910844 C20.9236698,18.9860126 21.0866409,18.8008243 21.2357749,18.606279 C22.7586328,17.2117133 24.3341488,15.8791369 25.8743031,14.5052343 C27.4721124,13.079089 29.0856806,11.6716576 30.6708057,10.231477 C31.1385791,9.80651849 31.6513233,9.43458231 32.0937285,8.97960378 C32.2732274,8.79519517 32.4800162,8.72891723 32.7117889,8.89539181 C32.8951315,9.08291938 32.7575285,9.18623499 32.6168505,9.30358592 C31.2073806,10.4770953 29.8659435,11.730528 28.4868385,12.9395155 C27.3156754,13.9660438 26.1368251,14.983605 24.9725806,16.0183206 C23.8548445,17.0120997 22.7271148,17.9941828 21.6086099,18.9867924 C21.20541,19.3446932 20.7656954,19.6643868 20.4608932,20.1240438 C20.0373219,20.679219 19.5507146,21.1751339 19.0618012,21.6690994 C17.6826962,23.0585969 16.1390825,24.2586174 14.7023226,25.5818369 C14.2956635,25.9561123 13.8659423,26.3027069 13.5115569,26.7362426 C13.2978495,26.9970657 12.9446172,27.0918042 12.7093852,27.3495084 C12.5225834,27.5541903 12.3284786,27.7487355 12.1916443,27.9931841 C12.0017675,28.0302218 11.8553241,27.9066329 11.6888936,27.8551701 C11.5512906,27.7101383 11.2983778,27.7323609 11.2084362,27.5167627 C11.1600061,27.2781621 11.3302802,27.1491151 11.4594272,26.9990151 C11.9775525,26.3982251 12.6048377,25.9221936 13.217517,25.431347 C13.4227684,25.2668217 13.5857396,25.0582412 13.7982939,24.9034627 C14.0581253,24.7358185 14.348706,24.6422496 14.6389023,24.5479011 C14.9563885,24.3670013 15.3130801,24.256668 15.5955891,24.0114396" id="Fill-1" fill="#FDE62F"></path>
                    <path d="M32.6833442,5.05727771 C32.9272481,5.38795352 33.1711521,5.71900681 33.415056,6.0500601 C33.7261384,6.5230473 34.0280602,7.00131927 34.2753993,7.51092239 C34.3528837,7.67022056 34.4475443,7.82838627 34.3727319,8.01750565 C34.2681471,8.10206202 34.2208168,8.01788313 34.1681427,7.95031353 C34.0895133,7.78988292 34.0284419,7.6203927 33.9261473,7.47166408 C33.8833973,7.40900177 33.8425558,7.34520701 33.8062946,7.27876986 C33.755529,7.18213401 33.7093438,7.08247828 33.6425469,6.99490204 C33.6078126,6.95149141 33.5765135,6.90581587 33.5501764,6.85674297 C33.5249845,6.80653763 33.5043729,6.75482235 33.4829979,6.70310707 C33.4276519,6.58306722 33.3497859,6.47661679 33.2757368,6.36790146 C33.2299333,6.30561663 33.1871833,6.24182187 33.1451967,6.17727214 C33.0398485,6.01382166 32.9283932,5.85452349 32.813121,5.69749023 C32.7001389,5.50572846 32.5268488,5.36115217 32.4016524,5.17920498 C31.9955276,4.70886017 31.9802597,4.69225088 31.5123001,5.11390028 C30.2542293,6.24823909 28.9514999,7.33199507 27.6659469,8.43500273 C26.5616997,9.38286454 25.4898966,10.3684747 24.3512966,11.2770782 C24.206252,11.3929658 24.0738034,11.5171579 23.9921204,11.6813634 C23.8474576,11.9727809 23.6352344,12.075079 23.3249154,11.9433371 C23.2943797,11.8712377 23.3256788,11.7855489 23.2978149,11.7217541 C23.0008553,11.0422833 23.4329354,10.6474353 23.8863906,10.2808985 C25.7505951,8.77473815 27.5415139,7.18515388 29.3587698,5.62463586 C30.010707,5.06482739 30.6019545,4.42423739 31.3695457,4.00145553 C31.5115367,3.98786612 31.6184117,4.07242249 31.7352107,4.13055499 C32.1050744,4.38497907 32.4127216,4.70282043 32.6833442,5.05727771" id="Fill-3" fill="#FDE946"></path>
                    <path d="M31.2,3.79866431 C30.1678089,4.66504941 29.2035977,5.61534119 28.2173389,6.53870478 C27.2645189,7.43084728 26.2745856,8.27849974 25.3280123,9.17766699 C24.7191335,9.75642785 24.0477867,10.2575263 23.4793284,10.8874117 C23.3547599,11.025565 23.3242609,11.1563033 23.3742352,11.3022618 C23.446992,11.515736 23.4356008,11.7311615 23.4400103,11.9477578 C23.6498291,12.2529439 23.5484106,12.6018395 23.5638438,12.9339538 C23.5917707,13.2617752 23.5215861,13.57984 23.4807982,13.9010269 C23.4745514,14.062596 23.4749189,14.2253359 23.3834217,14.3666113 C23.3407965,14.4071987 23.2952316,14.4107111 23.2470946,14.3775387 C23.3889336,13.1681119 23.3775423,11.9579046 23.2566485,10.7476973 C23.1864639,10.5869087 23.2353359,10.415583 23.2188002,10.2505015 C23.159272,10.0436618 23.2489318,9.88950773 23.3779098,9.75018364 C23.593608,9.51758655 23.805999,9.28225762 24.0444796,9.07385688 C25.3423432,7.93779965 26.5751667,6.72212865 27.8539224,5.56304587 C28.7295762,4.76964005 29.5148351,3.86071621 30.4963169,3.2 C30.8325414,3.26478375 31.1537002,3.34986121 31.2,3.79866431" id="Fill-5" fill="#FEE94B"></path>
                    <path d="M45.3462371,22.3157065 C45.476437,21.8830341 45.2749738,21.6705405 44.7611076,21.7227993 C44.6879183,21.7301002 44.6004763,21.7181883 44.5365319,21.6836052 C44.3439284,21.5794718 44.0195841,21.6056012 44.000709,21.3227887 C43.984145,21.0730223 44.2614941,20.9804165 44.4487047,20.9173985 C45.2087182,20.6610997 45.4956974,20.1584927 45.3500891,19.3811427 C45.3223542,19.2335883 45.3427702,19.074122 45.3574081,18.9215724 C45.3766684,18.7221434 45.2822927,18.4270348 45.5869915,18.4016739 C45.8346796,18.3813083 46.0627221,18.5488439 46.1540162,18.7916938 C46.2414582,19.0249372 46.3735842,19.2297457 46.4787457,19.4499245 C46.5877593,19.6774041 46.7148776,19.7423434 46.9433054,19.5974788 C47.0977734,19.4994935 47.2730426,19.4330172 47.4429189,19.3607771 C47.5607922,19.3108238 47.6863697,19.2912267 47.7788194,19.4095776 C47.8743507,19.5310025 47.8192661,19.668182 47.7329798,19.7438804 C47.007635,20.3790557 47.2283586,20.9954025 47.7480028,21.6167446 C47.8057839,21.6859107 47.8389117,21.7765952 47.8797436,21.8592102 C47.9860608,22.0724724 48.0800513,22.3126324 47.8936111,22.5032235 C47.7075561,22.6934302 47.4910698,22.5750794 47.2765095,22.4751728 C46.9860634,22.3391461 46.6717344,22.2542255 46.3720434,22.1370274 C46.1967742,22.0682456 46.1166511,22.1500921 46.0527067,22.2941882 C45.9706577,22.4809366 45.9494713,22.6776757 45.9375298,22.8774889 C45.9259736,23.0700012 45.8454654,23.2094862 45.6301346,23.1994955 C45.4144187,23.1895049 45.35163,23.0369552 45.3470075,22.8498225 C45.3431554,22.6965043 45.3462371,22.5428018 45.3462371,22.3157065" id="Fill-7" fill="#FDE319"></path>
                    <path d="M30.8937317,4.62834779 C30.7415643,4.32866512 30.4509615,4.21861646 30.1811427,4.08038925 C29.8638178,3.84620267 29.6017929,3.92236091 29.3230666,4.18472604 C28.0704686,5.36403639 26.7518077,6.46604612 25.4836218,7.62784007 C25.0323153,8.04137931 24.6014216,8.48423948 24.0955576,8.83190184 C23.6735712,9.12168394 23.3681229,9.54093505 22.9761989,9.86384599 C22.8396193,9.97656019 22.8188355,10.150201 22.7687316,10.3082293 C22.7501745,10.3482124 22.7208545,10.3782949 22.6829982,10.4 L22.4232001,9.40194627 C22.3259614,9.09845568 22.555326,8.94994711 22.7234525,8.79839221 C23.4924548,8.10573302 24.2789008,7.43363656 25.0378824,6.72993442 C26.1268076,5.71931458 27.269177,4.77190607 28.3477103,3.75024328 C28.5759615,3.53395388 28.7949342,3.30357521 29.101496,3.2 C29.3442216,3.20609266 29.5283071,3.38239898 29.7547026,3.43761371 C30.1533071,3.63905225 30.5003232,3.91436429 30.8243285,4.22356674 C30.9401243,4.41738946 31.2125411,4.50116353 31.1995512,4.78561455 C31.0663119,4.79741908 31.0021047,4.66718849 30.8937317,4.62834779" id="Fill-9" fill="#FEEA52"></path>
                    <path d="M21.9897737,8 C21.8402764,7.75879898 21.7258062,7.49925871 21.649252,7.21938578 C21.5308097,6.95705476 21.6427521,6.77087149 21.8074159,6.58947237 C22.6856225,5.62466829 23.6685494,4.79023236 24.5911718,3.88044602 C25.2133552,3.26687847 25.8275943,2.64214789 26.4764994,2.0620694 C26.6761902,1.88385971 26.8542149,1.66618078 27.1207101,1.6 C27.4568986,1.68172927 27.7988647,1.75189684 28,2.11549243 C27.0896551,3.00933159 26.1298389,3.8421728 25.2480212,4.77029839 C24.4478133,5.61310658 23.5320518,6.30720738 22.7650655,7.19307295 C22.5216809,7.47493926 22.1854925,7.65633838 21.9897737,8" id="Fill-11" fill="#FEEB5C"></path>
                    <path d="M27.2,2.11126364 C25.9101473,3.05793734 24.7321715,4.127328 23.4999873,5.13718632 C22.9017724,5.62768894 22.2847192,6.09481689 21.7199521,6.62330333 C21.5323371,6.79861327 21.386628,6.94872241 21.3850902,7.2 C21.1959374,6.88553779 21.0067846,6.5714408 20.8176319,6.25697859 C20.7615012,6.13535732 20.8506952,6.06778994 20.9268176,5.99620505 C21.8875753,5.09226315 22.9744348,4.32382123 23.9644112,3.45055857 C24.682961,2.81725139 25.422656,2.20622319 26.1761914,1.61016938 C26.2450092,1.59482976 26.3130581,1.59738636 26.3811069,1.6141869 C26.6525334,1.78219226 27.0769738,1.72302516 27.2,2.11126364" id="Fill-13" fill="#FEEC61"></path>
                    <path d="M0.950878081,16.3476747 C1.00053501,15.9597809 0.902375966,15.667612 0.517823483,15.5552394 C0.474710492,15.5427535 0.430442688,15.5161171 0.397723008,15.4836538 C0.25414135,15.3400666 -0.00530647165,15.1864906 8.26522405e-05,15.0466491 C0.00970608776,14.7977645 0.309572338,14.8302277 0.488953176,14.799013 C0.990526635,14.7116121 1.26729664,14.448993 1.22341377,13.8721467 C1.22225896,13.8559151 1.22341377,13.8384349 1.22726315,13.8226195 C1.32927157,13.4359744 1.29424226,12.9240545 1.76463579,12.8166762 C2.22463601,12.7109626 2.43866121,13.1284062 2.62381611,13.4888311 C2.77817602,13.7893239 2.94562379,13.8088851 3.21238543,13.6682112 C3.42718051,13.5545899 3.67623502,13.2869765 3.90989203,13.6053657 C4.13469549,13.9116853 3.88333135,14.1626509 3.75707188,14.414865 C3.66353208,14.6021528 3.46259475,14.7120283 3.42448595,14.9421841 C2.86863631,15.2922041 2.43327209,15.8099507 1.91591619,16.2136599 C1.7688701,16.3285297 1.6433805,16.4771113 1.49402478,16.5923974 C1.08098693,16.9103704 1.03209988,16.8887282 0.950878081,16.3476747" id="Fill-15" fill="#FEEF77"></path>
                    <path d="M18.9031937,3.2 L18.1651678,2.61553803 C18.1413232,2.40618368 18.3524625,2.34839496 18.473608,2.23593188 C18.6551339,2.06741028 18.8605043,1.9283021 18.7712797,1.63659018 C18.6997462,1.40232093 18.9420372,1.35698966 19.1135638,1.33934161 C19.6523727,1.28328309 20.0465762,1.00714297 20.4250116,0.696398834 C20.5011602,0.63376555 20.6246132,0.581513473 20.5826931,0.468704353 C20.5430804,0.362123958 20.4100127,0.357279395 20.3069429,0.351742751 C19.8173613,0.324751612 19.3262414,0.284610943 18.8397365,0.390153218 C17.8621118,0.360047716 16.9356373,0.651067562 15.9791649,0.752803394 C15.7872551,0.773219768 15.6822624,0.877723922 15.5726546,0.992609283 L15.2199866,0.882568485 C15.1153784,0.533067839 15.4449711,0.488774687 15.6618792,0.444827576 C17.8836487,-0.00675494229 20.1281091,-0.119564062 22.3914142,0.129584914 C22.4387187,0.315408525 22.2798835,0.29464611 22.1756599,0.282188662 C21.8883721,0.248276718 21.6033918,0.273883696 21.3176423,0.270077253 C21.2564927,0.287725305 21.3395638,0.341361543 21.314181,0.290839668 C21.3049508,0.273191615 21.3153347,0.262810408 21.3453327,0.263502488 C21.5445497,0.267308931 21.7445359,0.254159402 21.9425991,0.267654971 C22.2898828,0.291531748 22.3983368,0.488082607 22.1895051,0.746228629 C21.9352919,1.06112525 21.5849315,1.29262617 21.2438012,1.52447314 C20.7207604,1.88054855 20.2565617,2.29475872 19.7700569,2.68682232 C19.506229,2.89929103 19.2643226,3.12698551 18.9031937,3.2" id="Fill-17" fill="#FEEE71"></path>
                    <path d="M29.6,2.82508679 C28.6383262,3.62786392 27.6739895,4.42804906 26.715359,5.23415876 C25.5619591,6.20430456 24.4089396,7.17445036 23.2677128,8.15718584 C23.0600095,8.33640361 22.79068,8.48785003 22.7438897,8.8 C22.6290062,8.52672992 22.5145031,8.25308956 22.4,7.9794492 C22.8793153,7.35255728 23.5769853,6.96153668 24.1578697,6.44424902 C25.2880647,5.43855589 26.4692344,4.48877575 27.6051355,3.4882666 C28.052116,3.09428373 28.4869234,2.6436473 29.0662863,2.4 C29.2888255,2.48849803 29.5878269,2.48664661 29.6,2.82508679" id="Fill-19" fill="#FEEB56"></path>
                    <path d="M33.3383785,7.2 C33.4789403,7.32249575 33.5150006,7.51032256 33.6,7.66781709 C33.2313014,8.02363807 32.7639887,8.27524044 32.5435791,8.78700045 C32.3912425,8.69133711 32.2613516,8.67733759 32.1090151,8.82122149 C31.1063167,9.76813305 30.0992027,10.710767 29.0858334,11.6452345 C28.0294125,12.6201451 26.9608488,13.5802785 25.9033239,14.5540224 C24.9002576,15.4776015 23.9262603,16.4373459 22.8959647,17.3255373 C22.4724396,17.6906913 22.1754937,18.2390056 21.6,18.4 C21.6018398,18.3681122 21.6033117,18.3362244 21.6051515,18.3043367 C21.7552803,18.0752891 21.8204097,17.7949099 21.994824,17.5798618 C22.9787563,16.6722267 23.9553293,15.7572029 24.9583957,14.8717336 C25.8253158,14.1064269 26.6502882,13.2855109 27.5065375,12.5046491 C28.7520913,11.3683553 29.98771,10.2203951 31.2273764,9.07710149 C31.8231081,8.52762057 32.4100086,7.96764001 33.0153072,7.4290476 C33.1150251,7.33999514 33.195241,7.22022152 33.3383785,7.2" id="Fill-21" fill="#FDE632"></path>
                    <path d="M28.8,2.66838835 C28.1230409,3.24207678 27.4543594,3.82544017 26.7676832,4.38694534 C25.6207037,5.32541506 24.5950081,6.40506731 23.3796489,7.26291248 C23.0672616,7.48364457 22.8970321,7.87100073 22.5072678,8 C22.4716384,7.89142561 22.4363689,7.78285122 22.4007394,7.67427683 C22.392102,7.50478612 22.459402,7.3718452 22.5886037,7.26183749 C23.2054606,6.73688211 23.8233972,6.21371839 24.4348557,5.68231305 C25.3828143,4.85886768 26.3109788,4.01213078 27.2780118,3.21197695 C27.6227894,2.92710356 27.8822724,2.50964757 28.3681282,2.4103898 C28.5837042,2.37742332 28.7582524,2.41253979 28.8,2.66838835" id="Fill-23" fill="#FEEB59"></path>
                    <path d="M19.2,3.42671243 C19.7183085,3.10643209 20.127175,2.64138348 20.5610898,2.23393085 C21.1341194,1.69571978 21.7977084,1.26958737 22.3314313,0.692070938 C22.4231469,0.592445462 22.5568666,0.505662332 22.4971359,0.339879313 C22.429698,0.152692383 22.2612959,0.17331797 22.1090789,0.171761322 C21.9133163,0.170204674 21.7175536,0.17137216 21.521791,0.0733033319 L22.719103,0.0733033319 C23.1584128,-0.109213654 23.5711329,0.098988025 23.9934869,0.161253948 C24.0485933,0.421603337 23.7356814,0.335598531 23.7433886,0.348051716 C23.8547575,0.536795294 23.764198,0.676115296 23.6555266,0.812322001 C23.5499381,0.944637087 23.4416521,1.08784871 23.3006105,1.17268603 C22.5287354,1.63734548 22.0108122,2.39621141 21.2944289,2.92352594 C21.0593596,3.09631388 20.8520362,3.30023477 20.6474103,3.51077142 C20.4038631,3.76178092 20.1529941,4.03030272 19.7510641,3.99722394 C19.567633,3.80731288 19.3838165,3.61701265 19.2,3.42671243" id="Fill-25" fill="#FEEE6E"></path>
                    <path d="M19.2,4.26064833 C20.1557794,3.73198547 20.9492566,3.01919354 21.7147242,2.28975919 C22.0592806,1.96115963 22.5657554,1.84324621 22.8385612,1.45409653 C22.9471463,1.2990032 23.277506,1.23420394 23.0810552,0.944200664 C23.0476739,0.894981549 23.0856595,0.872673605 23.4467146,0.85921802 C23.8185132,0.706603356 24.1626859,0.888607851 24.5026379,0.962259476 C25.158753,1.10389721 25.8436451,1.19454537 26.4,1.59856702 C26.3792806,1.65557621 26.342446,1.66655313 26.2894964,1.63220598 C26.2277218,1.6311437 26.1663309,1.63008142 26.10494,1.62901913 C25.8658993,1.6187504 25.6395204,1.56280349 25.4223501,1.47215534 C25.2861391,1.41408386 25.138801,1.38929726 24.9952998,1.35317964 C24.8786571,1.32024886 24.7643165,1.28059029 24.6457554,1.25297094 C24.3998082,1.19596175 24.1630695,1.13647389 24.0786571,1.46684392 C24.0514149,1.57519679 23.9305516,1.64318291 23.8330935,1.71116902 C22.5688249,2.59428033 21.4522782,3.63531771 20.2478657,4.58252009 C20.1005276,4.69830894 19.9650839,4.8516318 19.7310312,4.78293749 L19.2,4.26064833 Z" id="Fill-27" fill="#FEED6B"></path>
                    <path d="M20,5.05723473 C20.5779593,4.80741852 20.9150348,4.27152889 21.3984189,3.90377712 C22.0802491,3.38541845 22.7378294,2.82920884 23.3077053,2.17697737 C23.5295931,1.92277842 23.8860687,1.78611661 24.1653483,1.5749482 C24.4005737,1.39764643 24.6948075,1.23827405 24.5109113,0.8 C24.9090161,0.968934724 25.2739792,0.894029705 25.5496213,1.12591652 C25.6886549,1.37334214 25.5124379,1.52076159 25.3536002,1.64427519 C24.1010857,2.61724357 23.009834,3.77189648 21.7565111,4.74327114 C21.4893565,4.95045523 21.275552,5.21581025 20.9934432,5.40267436 C20.8107596,5.52339894 20.6317135,5.69631798 20.3831506,5.53375815 C20.2109753,5.40984612 20.1050835,5.23373964 20,5.05723473" id="Fill-29" fill="#FEED68"></path>
                    <path d="M15.2575997,1.45871468 C15.1685148,1.29108853 15.1507785,1.12114801 15.4422189,1.1280911 C16.0589599,1.14296916 16.6325694,0.974351139 17.2210935,0.876155937 C17.7281917,0.791516301 18.2340806,0.807716857 18.7427912,0.802096256 C19.1495178,0.781928218 19.3151914,0.909218295 19.1152544,1.10064935 C18.5464821,1.64485575 17.8793537,2.10045504 17.0723501,2.4 C16.4672989,2.08623823 15.8626508,1.77247645 15.2575997,1.45871468" id="Fill-31" fill="#FEEF77"></path>
                    <path d="M25.771165,0.8 C25.967676,0.915758535 26.2214558,0.902373954 26.4,1.05937147 C25.8029811,1.72353606 25.0435131,2.21478634 24.398583,2.83156229 C23.5874607,3.60822971 22.6352249,4.237305 21.8162422,5.01107845 C21.6055077,5.21003844 21.3887842,5.40357224 21.1743065,5.6 C21.0144776,5.44336423 20.8939509,5.26176803 20.8,5.0624463 C22.3039636,3.84083201 23.7551501,2.55989148 25.264354,1.34442686 C25.4631108,1.18453538 25.575777,0.958082749 25.771165,0.8" id="Fill-33" fill="#FEED64"></path>
                    <path d="M17.6,2.56485561 C18.1150743,2.11305187 18.7186661,1.77014971 19.2034214,1.28078181 C19.4630495,1.0188666 19.3790624,0.910998887 19.0438111,0.899281628 C19.5721282,0.744544877 20.1004453,0.791413915 20.6287623,0.898937002 C20.8514501,0.944082914 20.8347223,1.09054866 20.7050825,1.18635449 C20.3043143,1.4823876 20.0087913,1.93212359 19.4386549,1.99105452 C19.2664988,2.00897503 18.8134565,1.9431516 19.1068885,2.40908498 C19.1776328,2.52177745 19.0152346,2.62378653 18.9281111,2.7064966 C18.7496821,2.87536299 18.5632377,3.03595837 18.3799298,3.2 C18.1199532,2.98840008 17.8599766,2.77645553 17.6,2.56485561" id="Fill-35" fill="#FEEF74"></path>
                    <path d="M33.5585192,33.6 C33.5529037,33.500356 33.530442,33.4163147 33.5465863,33.3407839 C33.6378372,32.9134851 33.5423748,32.6113618 33.0741878,32.4922146 C32.9359077,32.4567541 32.7516512,32.3276779 32.8116662,32.1645597 C32.8688734,32.0092428 33.0812071,32.0255546 33.2268575,32.0702348 C33.5876492,32.1805169 33.7146985,32.0475401 33.699256,31.6837156 C33.6915348,31.4982573 33.6532796,31.243651 33.9196619,31.2035807 C34.1555102,31.1684748 34.2116645,31.3989679 34.2541313,31.568469 C34.3334493,31.8854857 34.5005085,31.9854843 34.8255019,31.9532152 C35.1599713,31.920237 35.2828089,32.1209433 35.1434759,32.3883153 C34.9051709,32.8461102 34.9051709,32.8461102 35.0462587,33.3581595 C34.426104,32.8638404 34.0561872,33.4624133 33.5585192,33.6" id="Fill-37" fill="#FDE31B"></path>
                    <path d="M0.828722083,15.8243982 C0.930653738,16.1402381 1.04558902,16.2613435 1.35977342,15.9599881 C1.87320694,15.4675193 2.52632458,15.1283435 3.02843236,14.617367 C3.1618244,14.4813748 3.28766595,14.3011248 3.52424806,14.4656834 C3.6681269,14.7533592 3.84346613,15.0309763 3.94917303,15.3311248 C4.14129113,15.8763006 3.76460542,16.3623318 3.22558412,16.177656 C2.49402525,15.9269959 1.97975279,16.0275818 1.52672321,16.6214412 C1.41640212,16.7662849 1.19240416,16.8523865 0.983507189,16.7646756 C0.775029689,16.6777693 0.801036942,16.4769998 0.801036942,16.3031873 C0.800617471,16.1434568 0.818654759,15.9841287 0.828722083,15.8243982" id="Fill-39" fill="#FEEF75"></path>
                    <path d="M25.6,0.899590721 C25.5367232,1.27895839 25.2479725,1.47043734 24.9764428,1.69861642 C24.1045841,2.4338158 23.2591575,3.20052942 22.3949081,3.94410601 C21.8542516,4.40924029 21.2759494,4.83049397 20.7865551,5.35426868 C20.6527927,5.49787789 20.4781806,5.57606513 20.2811414,5.6 C20.1561897,5.49468658 20.028835,5.39096881 20,5.21584536 C20.3167847,5.21863776 20.5334478,5.02077618 20.7396982,4.825707 C21.7437174,3.87708838 22.8726883,3.06968547 23.8166345,2.04646984 C24.0985768,1.74130027 24.5238933,1.52788102 24.8570979,1.23308322 C24.9972681,1.10941974 25.1013946,0.988947564 25.1194164,0.802654503 C25.2880212,0.792681641 25.4518201,0.807840391 25.6,0.899590721" id="Fill-41" fill="#FEED65"></path>
                    <path d="M26.652631,1.33914745 C25.7399642,0.842760602 24.7554549,0.606237715 23.7359745,0.497312701 C23.3216443,0.345595717 22.8932497,0.296968479 22.4561123,0.311751159 C21.9129216,0.155365961 21.3488244,0.166258462 20.7965108,0.149530692 C19.3262088,0.105182651 17.8543863,0.105182651 16.4258974,0.56616887 C16.271949,0.615963162 16.0913923,0.570059049 15.9279409,0.598068338 C15.6591965,0.643583434 15.3737268,0.686375403 15.3448377,1.05827652 C15.19317,1.00537009 15.1460352,0.928344541 15.2741355,0.792188274 C15.4273236,0.630356825 15.6101611,0.550997172 15.8234081,0.49186645 C17.7776022,-0.0500354939 19.7777907,-0.0531476372 21.7673359,0.0573334483 C23.8891627,0.174816856 25.9532113,0.655253971 27.8484868,1.69120866 C29.032939,2.33853445 30.2086485,3.01231347 31.2,3.96424028 C31.1384206,4.01442359 31.0783618,4.01092243 31.0198234,3.95918305 C30.6579497,3.70982257 30.3382692,3.39744119 29.9391438,3.20448831 C28.8789906,2.51748269 27.8036327,1.85848636 26.652631,1.33914745" id="Fill-43" fill="#FEFCEF"></path>
                    <path d="M11.95723,27.8791192 C12.0928937,27.9625891 12.2401649,28.0111918 12.4004946,28.022462 C12.4302391,27.9956953 12.4654246,27.9837207 12.5060511,27.9861861 C12.6968508,28.0291537 12.8814839,28.0936051 13.0766364,28.1210762 C13.1183512,28.1288244 13.158615,28.1400946 13.1988788,28.1531258 C13.4778236,28.2415264 13.7734542,28.2436395 14.0574773,28.3087953 C15.582061,28.5743493 17.1204287,28.6134428 18.6631492,28.5824497 C18.8488706,28.5972419 19.0509151,28.5472304 19.2,28.7081828 C19.1328937,28.7729864 19.0480132,28.7817913 18.9591426,28.7835522 C16.902061,28.8282808 14.8489695,28.8173628 12.8433965,28.2788589 C12.0754823,28.0728257 11.3155482,27.8396736 10.6161913,27.4550782 C10.5265952,27.4061233 10.4340973,27.3656211 10.4,27.2613718 C10.448244,27.2141778 10.5077329,27.1969203 10.5748392,27.2004423 C10.6618961,27.2120647 10.7362572,27.2525669 10.8098928,27.2948301 C11.1885903,27.496637 11.565474,27.7016137 11.95723,27.8791192" id="Fill-45" fill="#FEF7C1"></path>
                    <path d="M31.97034,23.3164072 C31.0021939,24.249212 29.9045998,25.015334 28.7721246,25.7276999 C27.7904136,26.3453157 26.7269256,26.8039834 25.6374705,27.2 C25.606465,27.1636469 25.5952255,27.1214928 25.6018142,27.0743111 C25.9370609,26.7250894 26.4114448,26.6353669 26.8288561,26.4582423 C28.4740844,25.7601856 29.8836711,24.7090399 31.2692286,23.6141932 C31.4820037,23.4459635 31.6564095,23.205801 31.9680146,23.2 C32.009872,23.2379 32.0106472,23.2765735 31.97034,23.3164072" id="Fill-47" fill="#FEF7C1"></path>
                    <path d="M25.5956978,27.2734432 C25.5968712,27.3135571 25.5984356,27.353671 25.6,27.3937849 C23.9194207,28.1131609 22.1762646,28.5272255 20.3994734,28.7745945 C20.1996186,28.8026743 19.9954617,28.7924229 19.7932603,28.8 C19.5973165,28.7937601 19.4009817,28.7870744 19.2050379,28.7803888 C19.1901759,28.7126408 19.2081668,28.6600471 19.2594016,28.6221617 C19.9430536,28.4639346 20.6454786,28.4804259 21.330695,28.3315588 C21.772644,28.2357311 22.2196773,28.1724403 22.6577152,28.0538814 C23.4532232,27.90546 24.2123585,27.6059429 24.9773604,27.3282655 C25.1760419,27.2556148 25.3778522,27.1125419 25.5956978,27.2734432" id="Fill-49" fill="#FEF4AA"></path>
                    <path d="M33.878977,8.31339333 C33.8416637,7.72569009 33.3459295,7.30750964 33.0443134,6.81818044 C32.95947,6.67987597 32.817324,6.56480375 32.8,6.4 C33.2206633,6.68314301 33.426775,7.08825531 33.665758,7.46577932 C34.3733786,8.58528322 34.8668918,9.76867579 35.1596237,11.007245 C35.2138168,11.0704076 35.2111516,11.1346593 35.1653984,11.2 C34.8255806,11.1517205 34.8837716,10.8965288 34.8238037,10.7237389 C34.5546147,9.94691069 34.3023056,9.1668154 33.8598761,8.43899266 C33.8332238,8.39398019 33.8398869,8.35187174 33.878977,8.31339333" id="Fill-51" fill="#FEF7C2"></path>
                    <path d="M10.5979936,27.1922236 C10.5374215,27.1945565 10.4772328,27.1972783 10.4166607,27.2 C9.89758114,26.8492831 9.36623379,26.5168408 8.8,26.0292588 C9.92480023,25.9347752 10.9503083,25.7757473 11.9735161,25.6 C12.0049523,25.6408262 12.0084026,25.6843742 11.9838671,25.7298663 C11.8753741,25.8243499 11.7358283,25.839514 11.6070168,25.8803402 C10.9326734,26.0312029 10.2387782,26.0708627 9.53414876,26.2205589 C9.8462099,26.5253949 10.1996747,26.7077521 10.5121192,26.9472661 C10.5784418,27.0153098 10.6305798,27.0887971 10.5979936,27.1922236" id="Fill-53" fill="#FDE844"></path>
                    <path d="M35.319249,11.3955536 C35.3253338,11.3303691 35.3319718,11.2651845 35.3380567,11.2 C35.6411929,11.787385 35.753486,12.3979468 35.8679919,13.009957 C36.0533032,14.0029347 36.0367082,14.9944638 35.8608007,15.9867171 C35.7761659,16.0127909 35.7081262,16.0004783 35.6550221,15.9497792 C35.4990286,15.7614684 35.520049,15.5528779 35.5532391,15.3569622 C35.7562519,14.1452542 35.5123047,12.9531016 35.224104,11.7620355 C35.1925734,11.6309422 35.1665745,11.5041945 35.319249,11.3955536" id="Fill-55" fill="#FEF9CB"></path>
                    <path d="M31.2205537,23.2 C31.2183922,23.1670539 31.2157983,23.1341077 31.2132044,23.1011616 C31.1574361,22.945482 31.2897237,22.8549706 31.3969371,22.7691658 C32.0618332,22.238769 32.6294591,21.6406698 33.1534215,21.0117967 C33.2325346,20.9165787 33.3172678,20.8242571 33.4664155,20.8 C33.518293,20.800362 33.5632535,20.8148439 33.6,20.8459798 C32.9623395,21.7405944 32.1642912,22.5218887 31.2205537,23.2" id="Fill-57" fill="#FEF7C8"></path>
                    <path d="M12.0051957,25.5717836 C12.003597,25.5469632 12.0015987,25.5224041 12,25.4978449 C13.0731115,25.3029395 14.124641,25.0657088 15.1613826,24.8 C15.2097426,24.8253429 15.2125403,24.8525147 15.170575,24.8820379 C14.8740205,24.9525801 14.5554842,24.9912477 14.3072897,25.1328545 C13.745355,25.336643 13.1338612,25.4513394 12.5179712,25.5574139 C12.3513091,25.5861533 12.1798511,25.6290011 12.0051957,25.5717836" id="Fill-59" fill="#FDE739"></path>
                    <path d="M35.1008333,16 C35.13375,16 35.1670833,16 35.2,16 C35.10375,16.8266131 34.945,17.6411815 34.5045833,18.4 C34.4329167,18.3525093 34.4075,18.2871236 34.4,18.2151993 C34.555,17.5637511 34.8325,16.9336392 34.8975,16.2656725 C34.9083333,16.1555492 34.9741667,16.0578147 35.1008333,16" id="Fill-61" fill="#FEF9D2"></path>
                    <path d="M34.3965591,18.4228541 C34.3977061,18.4973211 34.398853,18.571788 34.4,18.6467009 C34.1892473,19.3971673 34.0045878,20.1694833 33.6513262,20.8 C33.624086,20.7656649 33.606595,20.7219658 33.6,20.6680107 C33.7789247,19.8783041 34.0834409,19.1835765 34.3027957,18.4233 C34.3340502,18.3916404 34.3653047,18.3929781 34.3965591,18.4228541" id="Fill-63" fill="#FEF7C3"></path>
                    <path d="M21.9446184,17.6517633 C21.7801347,17.8484324 21.794014,18.2337252 21.6,18.4 C21.8264973,17.6101946 22.0532899,16.8208361 22.2797871,16.0314777 C22.3075456,15.9966136 22.3373712,15.989909 22.3695592,16.0153866 C22.3905257,16.0565083 22.400566,16.1034407 22.3999754,16.1552898 C22.3680827,16.3483832 22.3093174,16.5285143 22.2765388,16.7216076 C22.2139346,17.0711423 22.0825248,17.3639112 21.9446184,17.6517633" id="Fill-65" fill="#FDE73A"></path>
                    <path d="M31.2,4 L31.4115847,4.00575221 C31.7759559,4.38053097 32.1438907,4.75309735 32.5038075,5.13185841 C32.6316492,5.26681416 32.8173983,5.37168142 32.7986898,5.6 C32.3710659,5.32743363 32.1478997,4.82787611 31.676177,4.60575221 C31.5977793,4.34115044 31.3113604,4.23849558 31.2,4" id="Fill-67" fill="#FEF7C0"></path>
                    <path d="M22.5475212,16 L22.4,15.9920823 L22.991052,14.4 C23.0365175,14.4009501 23.0819831,14.4022169 23.1274486,14.4034838 C23.1666264,14.4316706 23.1912938,14.4642914 23.2,14.5019794 C23.1937122,14.6495645 23.1487304,14.7936659 23.1051995,14.9380839 C23.0321644,15.1119557 22.9683192,15.2874109 22.9025393,15.4628662 C22.8585248,15.5664291 22.8067715,15.6687253 22.7550181,15.7710214 C22.7047158,15.8549485 22.6684401,15.943943 22.5475212,16" id="Fill-69" fill="#FDE83F"></path>
                    <path d="M15.2076412,24.8 C15.2053156,24.744385 15.2026578,24.6882353 15.2,24.6326203 C15.4667774,24.4213904 15.7335548,24.2106952 16,24 C15.8182724,24.4775401 15.4654485,24.5171123 15.2076412,24.8" id="Fill-71" fill="#FDE634"></path>
                    <path d="M33.7463611,20 C33.7508965,20.0622074 33.7554319,20.1250836 33.7599674,20.187291 C33.6945815,20.3919732 33.6291957,20.5959866 33.5638099,20.8 C33.5294162,20.7966555 33.4946445,20.7939799 33.4602508,20.7906355 C33.394487,20.3451505 33.4889752,20.0802676 33.7463611,20" id="Fill-73" fill="#FDF5B1"></path>
                    <path d="M23.2515906,10.4418902 C23.2493228,10.6947637 23.2474331,10.9471264 23.2451654,11.2 C23.127622,10.9726692 23.1699528,10.7065134 23.1484094,10.4556833 C23.1646614,10.4372925 23.1805354,10.4183908 23.1964094,10.4 C23.2149291,10.4137931 23.2330709,10.4280971 23.2515906,10.4418902" id="Fill-75" fill="#FEEA52"></path>
                    <path d="M22.4010077,10.4 C22.2959368,10.1693927 22.3276848,9.88955466 22.3065195,9.62850202 L22.3280628,9.6 C22.6217321,9.76518219 22.4388029,10.0968421 22.4199053,10.371498 L22.4010077,10.4 Z" id="Fill-77" fill="#FEEA52"></path>
                    <path d="M12.8764861,27.7800278 L12.837502,27.7811757 L12.8003922,27.7693137 C12.7850235,27.2626898 13.2247185,27.0552954 13.5189731,26.8612937 C13.9133117,26.6010941 14.1854503,26.2352842 14.5325582,25.942177 C15.4288164,25.1864503 16.2943371,24.3928416 17.1669799,23.6084165 C17.933916,22.9188876 18.6944797,22.2213232 19.4576673,21.5272026 C19.582866,21.5103662 19.6792016,21.4326889 19.7665409,21.3523332 C20.9214431,20.2904894 22.1157043,19.2753284 23.2878495,18.2341475 C24.3246751,17.3127349 25.3757449,16.4077761 26.4005754,15.4729709 C27.503374,14.4666108 28.6309125,13.4893319 29.7367099,12.4864156 C30.4961491,11.7972694 31.2919483,11.150597 32.0371433,10.444997 C32.5506831,9.95865336 33.0912119,9.50636529 33.6343645,9.05599046 C33.7738075,8.94043124 33.9050038,8.81224469 34.0984246,8.8 C34.3023411,9.03226638 34.4114215,9.30164946 34.3990515,9.61809805 C33.9859706,9.82357918 33.6362388,10.0990846 33.4289486,10.532623 C33.3895897,10.6152746 33.3476069,10.7162933 33.252021,10.72739 C32.61928,10.7985623 32.311531,11.3491905 31.896201,11.7161484 C30.7191828,12.7554161 29.5504112,13.8053978 28.3850132,14.8588234 C26.8612619,16.2359679 25.3127707,17.5840312 23.7811476,18.9523748 C22.5426546,20.0589883 21.2985388,21.16101 20.0615451,22.2699193 C18.7679496,23.4289553 17.4586105,24.5696243 16.1608917,25.7240685 C15.5307746,26.2846455 14.8980336,26.8417787 14.2742889,27.4103913 C14.0808681,27.5867913 13.9534203,27.8091089 13.7731191,27.9893354 C13.685405,27.9992842 13.5965663,28.0176512 13.5170989,27.9579583 L13.5189731,27.9591063 C13.3105584,27.8779852 13.0920229,27.8339809 12.8764861,27.7800278" id="Fill-79" fill="#FDE52C"></path>
                    <path d="M34.3790416,9.20633856 C33.7625373,9.58923451 33.2150939,10.052133 32.6711424,10.5232178 C31.9044889,11.187053 31.1184362,11.8304224 30.3378153,12.4793733 C29.4877455,13.1863726 28.6330199,13.8881625 27.7829502,14.5947897 C26.629478,15.5529599 25.4763938,16.5118742 24.3268015,17.4741375 C23.2811885,18.3493282 22.2402313,19.2297284 21.1961703,20.1067797 C20.6623063,20.5555382 20.0826603,20.95183 19.5926383,21.4500784 C19.5072822,21.537151 19.3703243,21.6893419 19.2,21.5311973 C19.6655791,21.054903 20.1311581,20.5786087 20.5967372,20.1019423 C21.4541787,19.2438684 22.4419823,18.5245896 23.3669327,17.7387041 C24.2449372,16.9922616 25.1307014,16.2525171 26.0222853,15.5194704 C27.3941916,14.3923647 28.7579503,13.2559563 30.1174412,12.1150826 C30.9438441,11.4222233 31.7613233,10.7178287 32.6009176,10.0405978 C33.1153824,9.62570079 33.524704,9.08577657 34.1512959,8.8 C34.4337472,8.82865208 34.4170639,9.0120998 34.3790416,9.20633856" id="Fill-81" fill="#FDE62E"></path>
                    <path d="M34.3558161,8.45802984 C33.3255308,9.33706543 32.3056914,10.2279335 31.2626387,11.0920831 C29.9924822,12.1444066 28.7641097,13.2440599 27.497822,14.3017272 C26.6315776,15.0254143 25.7877727,15.7807818 24.9304268,16.5185916 C23.8424949,17.4548809 22.7859011,18.4266675 21.6527033,19.3110468 C21.3640841,19.5358631 21.165997,19.8690798 20.8,20 C20.9067814,19.6198352 21.2364108,19.4125767 21.5072331,19.1812717 C22.6942085,18.167499 23.884279,17.1575432 25.0604215,16.130793 C26.7538345,14.65212 28.4936743,13.2245937 30.2048842,11.7657686 C31.0672598,11.0306307 31.9218975,10.2859506 32.7510006,9.51493368 C32.8848642,9.39012055 33.2582121,9.4508095 33.1494963,9.09888991 C33.1835425,8.66910525 33.7503349,8.10840039 34.2602545,8 C34.2660579,8.07595661 34.2823072,8.14618786 34.3604588,8.18321193 C34.3678097,8.20764019 34.3693572,8.23283183 34.3654883,8.25802347 C34.4111412,8.32710964 34.4150101,8.39390566 34.3558161,8.45802984" id="Fill-83" fill="#FDE62F"></path>
                    <path d="M12.0109082,25.419758 C12.8072721,25.213172 13.6036361,25.006586 14.4,24.8 C13.6534088,25.5503498 12.6256016,26.0221775 11.9043116,26.7976128 C11.7906638,26.9193509 11.6127262,27.0027231 11.6127262,27.1908639 C11.2547772,27.2546843 11.0241635,26.9643572 10.7006407,26.9322626 C10.6392543,26.8968478 10.5782827,26.8614331 10.5168963,26.8260183 C10.4841292,26.7703139 10.4509474,26.7149784 10.4181803,26.6592739 C10.3551349,26.5165082 10.4683679,26.4360873 10.5695725,26.3700535 C10.9548965,26.1180924 11.2514591,25.7823902 11.6127262,25.5079259 C11.7176638,25.3806542 11.8732036,25.4323007 12.0109082,25.419758" id="Fill-85" fill="#FDE634"></path>
                    <path d="M10.4,27.2081036 C10.8026051,27.1377602 11.0687981,27.5475639 11.4415631,27.5816698 C11.5846063,27.7937659 11.9090586,27.6989088 12,28 C11.4226169,27.8497209 10.8925992,27.5774066 10.4,27.2081036" id="Fill-87" fill="#FDE844"></path>
                    <path d="M23.2,14.3924411 C23.2392599,14.090268 23.320829,13.7922706 23.2880489,13.4832645 C23.8308266,12.5907909 24.753625,12.0961533 25.4930835,11.4098104 C26.8161042,10.1817577 28.232129,9.05733973 29.5742079,7.84864736 C30.3742714,7.12813915 31.1983483,6.43230588 32.0365282,5.75469411 C32.1489717,5.66396625 32.2587469,5.52616621 32.4333201,5.64802245 C32.5164139,5.85605116 32.7939014,5.93463135 32.8,6.19428763 C32.2396887,6.9060647 31.4491543,7.3608428 30.8011753,7.97657742 C29.6668308,9.05468243 28.4512983,10.043578 27.2666402,11.0651205 C25.9916462,12.1644839 24.7864051,13.348881 23.4016358,14.3199347 C23.3402684,14.3628311 23.2865243,14.4209122 23.2,14.3924411" id="Fill-89" fill="#FDE83F"></path>
                    <path d="M32,5.25906393 C31.4334292,5.51845372 31.0355461,5.99412344 30.5734884,6.38357346 C29.0736342,7.64910335 27.5869817,8.93034277 26.1098637,10.2229077 C25.3111639,10.9217987 24.5509689,11.665261 23.6803934,12.2793937 C23.4831021,12.4189527 23.5256407,12.7769837 23.2014669,12.8 C23.2011001,12.4781375 23.2003667,12.1566403 23.2,11.8351431 C23.4677001,11.8146841 23.6404217,11.6926613 23.7962745,11.4548265 C24.1266825,10.9506604 24.674551,10.6594862 25.1116723,10.2568841 C25.9338417,9.49844294 26.8011168,8.78932241 27.6493228,8.05901229 C28.432254,7.38496418 29.2162854,6.71237742 29.9970163,6.0354066 C30.3794974,5.70331461 30.786915,5.39204686 31.1231904,5.01794103 C31.4198608,4.68804106 31.6142184,4.75928191 31.8390132,5.05374412 C31.8914531,5.12279296 31.9460933,5.19074577 32,5.25906393" id="Fill-91" fill="#FDE842"></path>
                    <path d="M23.2058716,13.8357736 C23.6730275,13.3373426 24.2576147,12.9891654 24.7434862,12.5059886 C25.4645872,11.7882785 26.2579817,11.1502716 27.0124771,10.4684088 C28.187156,9.40671642 29.3801835,8.36409181 30.5148624,7.2570182 C31.0238532,6.76011261 31.6381651,6.39629993 32.0913761,5.83723347 C32.1834862,5.72397103 32.279633,5.59774252 32.4484404,5.60003065 C32.6286239,5.70032702 32.6807339,5.90664009 32.8,6.05765667 C31.466055,7.13117104 30.2744954,8.37667652 28.9750459,9.49023317 C27.5838532,10.6823489 26.2733945,11.9705662 24.8770642,13.1561989 C24.5144954,13.4639524 24.1845872,13.813655 23.8187156,14.1191203 C23.64,14.2682302 23.4678899,14.4516619 23.200367,14.3864502 C23.200367,14.3559418 23.200367,14.3250521 23.2,14.2945437 C23.2022018,14.1416203 23.2040367,13.9886969 23.2058716,13.8357736" id="Fill-93" fill="#FDE73B"></path>
                    <path d="M22.4,15.9568243 C22.4183079,15.7261865 22.45866,15.5021717 22.5789689,15.3023116 C23.4110437,14.4755998 24.2700198,13.6796656 25.1469301,12.9055485 C26.069797,12.0913036 26.9500701,11.2264119 27.8751787,10.4152837 C29.3031938,9.16391777 30.7009449,7.87709912 32.0957068,6.58599496 C32.2175103,6.4734032 32.3437974,6.35107166 32.5324807,6.42002925 C32.6217783,6.54430874 32.711076,6.66936741 32.8,6.7936469 C31.4945357,7.84982776 30.298545,9.0388591 29.0480043,10.16166 C27.5710437,11.4886065 26.1090282,12.8334742 24.6354302,14.1639271 C24.0503251,14.6922123 23.4480331,15.1986804 22.8812359,15.7491723 C22.7512125,15.8753998 22.6409916,16.0927915 22.4,15.9568243" id="Fill-95" fill="#FDE738"></path>
                    <path d="M21.6,17.6 C21.6785156,17.3066034 21.8246094,17.0424325 21.975,16.7801595 C22.7636719,16.0483759 23.6292969,15.4023719 24.434375,14.6895661 C25.8496094,13.4358933 27.3503906,12.2763503 28.746875,11.0021814 C29.4398438,10.370221 30.2144531,9.8320109 30.9101563,9.19929137 C31.5785156,8.59162253 32.2269531,7.95586656 32.9777344,7.43625466 C33.1390625,7.32466525 33.265625,7.14589447 33.5054687,7.21573274 C33.5371094,7.27608211 33.56875,7.33643148 33.6,7.39716041 C33.1980469,7.85224782 32.6765625,8.17942493 32.2355469,8.5832723 C31.7257813,9.05012594 31.1855469,9.47826489 30.6679688,9.9333523 C29.2511719,11.1798136 27.7726563,12.3579548 26.3527344,13.5991023 C25.0472656,14.740047 23.6699219,15.7990077 22.3886719,16.9657623 C22.1402344,17.1919775 21.8636719,17.3893465 21.6,17.6" id="Fill-97" fill="#FDE632"></path>
                    <path d="M33.6,7.48075805 C33.0449132,7.83246043 32.5247328,8.23260971 32.0546353,8.68305502 C31.2347156,9.46893047 30.3449832,10.1760335 29.4761187,10.9064353 C28.8478045,11.4345436 28.2194902,11.9626519 27.5934525,12.493349 C26.4320576,13.47745 25.2619362,14.4526752 24.1168563,15.4548975 C23.6558649,15.8583752 23.1823527,16.2459505 22.7092199,16.6342654 C22.6158834,16.7108189 22.5362058,16.8025352 22.4003746,16.7999464 C22.3954422,16.6261293 22.4383163,16.4711731 22.5824947,16.3561579 C22.774859,15.9900324 23.1022957,15.7392919 23.4141763,15.4889213 C24.9124933,14.2873639 26.3387211,13.0062945 27.8100995,11.7751513 C29.212424,10.6017006 30.6113338,9.42455162 31.9647136,8.19636699 C32.2800089,7.91012341 32.6556316,7.67676463 32.9785153,7.386453 C33.0946168,7.28179288 33.2266539,7.15827175 33.4193976,7.21374532 L33.6,7.48075805 Z" id="Fill-99" fill="#FDE735"></path>
                    <path d="M32.8,6.58485988 C32.2465235,6.84597053 31.8729854,7.3243585 31.4073313,7.69051802 C30.3983491,8.48518619 29.4432313,9.34447075 28.4639136,10.174659 C27.798805,10.7380686 27.1282319,11.2954321 26.4631233,11.8588417 C25.1797448,12.9456061 23.8987082,14.0357714 22.6137684,15.1206465 C22.5599039,15.1659914 22.4732525,15.1743046 22.4018236,15.2 C22.3998719,15.0133304 22.3842591,14.8243936 22.4958911,14.655862 C23.2944898,14.3070847 23.8413309,13.6458059 24.4919975,13.1175386 C26.2991881,11.6498776 28.0892045,10.1618113 29.8558016,8.64842759 C30.6544003,7.9640985 31.4323119,7.25671913 32.2597944,6.60299781 C32.3960168,6.49568171 32.5127231,6.37816302 32.7059324,6.40348055 C32.7371582,6.46394032 32.7687742,6.5244001 32.8,6.58485988" id="Fill-101" fill="#FDE73A"></path>
                    <path d="M22.4917183,16.3799485 C22.9275246,16.245354 23.1548696,15.8255751 23.4762629,15.5431217 C24.7433225,14.4304738 25.9622472,13.2569657 27.207461,12.1162285 C28.4393451,10.9875852 29.6952966,9.88703126 30.9134808,8.74161247 C31.3940896,8.28984307 31.8791416,7.84470586 32.3730801,7.40893175 C32.5000823,7.29696472 32.6144954,7.17602473 32.7981487,7.20411402 C32.7988892,7.26653466 32.7996297,7.3289553 32.8,7.39098581 C31.5570078,8.45915906 30.3906613,9.61979288 29.179142,10.7254185 C28.1738624,11.6418316 27.1615477,12.5512223 26.1673761,13.48168 C25.1539506,14.4304738 24.1531142,15.3960431 23.0859997,16.2789051 C22.9456678,16.3951635 22.845325,16.5543361 22.7042526,16.6698143 C22.6142773,16.7431586 22.5391127,16.8676097 22.4024836,16.7544723 C22.3891539,16.6183173 22.4309943,16.4965971 22.4917183,16.3799485" id="Fill-103" fill="#FDE736"></path>
                    <path d="M22.4873888,16.4307692 C23.0291996,16.13 23.4326448,15.6430769 23.8983545,15.2419231 C24.5359289,14.6934615 25.1298088,14.0888462 25.7480849,13.515 C26.3558014,12.9503846 26.9689798,12.3926923 27.5821581,11.8346154 C28.5893145,10.9180769 29.6157692,10.0242308 30.599986,9.08153846 C31.1556334,8.54923077 31.6821511,7.98538462 32.2829494,7.50615385 C32.4220433,7.395 32.5509418,7.27423077 32.712247,7.2 C32.7413767,7.23076923 32.7705063,7.26115385 32.8,7.29192308 C31.9326658,7.95461538 31.1490792,8.72230769 30.348379,9.46807692 C29.0775996,10.6530769 27.809005,11.8388462 26.5145578,12.9953846 C25.6978363,13.725 24.9073314,14.4923077 24.0997129,15.2357692 C23.5331419,15.7569231 22.966571,16.2784615 22.4,16.8 L22.4,16.7076923 C22.4032771,16.6065385 22.3854352,16.4973077 22.4873888,16.4307692" id="Fill-105" fill="#FDE736"></path>
                    <path d="M22.5077349,10.3934347 C22.4768051,10.2401165 22.5596812,10.0636268 22.4109801,9.93348008 C22.3530857,9.60483071 22.5319237,9.41636902 22.764294,9.19121909 C23.5363505,8.44355141 24.428161,7.83800238 25.2386815,7.13745012 C26.7245036,5.85297558 28.2281698,4.58781064 29.7274742,3.3180114 C30.0708747,3.02720884 30.2195759,3.34079673 30.4,3.54123037 C30.2798495,3.79573089 30.0165492,3.89961653 29.812333,4.06374812 C28.2154807,5.34976743 26.6995218,6.72731423 25.1316167,8.04577367 C24.374232,8.68221806 23.5426951,9.25030646 22.8749277,9.98947792 C22.7627079,10.1138317 22.5961626,10.2030421 22.5961626,10.4 C22.5664223,10.3996138 22.5370786,10.3972967 22.5077349,10.3934347" id="Fill-107" fill="#FEEA4E"></path>
                    <path d="M26.4951633,1.6 C27.6227584,1.9777268 28.6487263,2.52629823 29.6,3.2 C29.3647851,3.19032325 29.1920548,3.0391658 28.9859275,2.96475495 C28.8756817,2.77088634 28.6422624,2.74919708 28.4680956,2.64475495 C28.3553361,2.51662148 28.1804511,2.48492179 28.0371675,2.40450469 C27.7915385,2.19361835 27.4687016,2.12621481 27.1756705,2.00375391 C26.9734934,1.77651721 26.6140276,1.81422315 26.4,1.60633994 C26.4319605,1.60433785 26.4635619,1.60200209 26.4951633,1.6" id="Fill-109" fill="#FEED65"></path>
                    <path d="M19.2,28.6484165 C19.1963122,28.6927419 19.1889367,28.7351676 19.1778734,28.7756936 C17.6614628,28.843448 16.14874,28.7915241 14.6492932,28.3343398 C14.5648433,28.3083778 14.4829748,28.2526545 14.4,28.2102288 C14.4136447,28.179201 14.4269207,28.1481733 14.4405655,28.1177788 C14.5397664,28.0075986 14.6518746,28.0012664 14.7643516,28 C14.8524892,28.0012664 14.9391518,28.0215295 15.0250768,28.0569897 C15.2109404,28.1608377 15.4067609,28.1380418 15.5974186,28.1867997 C15.6427781,28.1975644 15.6862938,28.2152945 15.7298095,28.2361908 C15.9171481,28.3242083 16.1070682,28.2691182 16.2962508,28.2716511 C17.0666257,28.5243055 17.8451137,28.3919627 18.6195452,28.4299559 C18.8190535,28.4394542 19.0358943,28.349537 19.2,28.6484165" id="Fill-111" fill="#FDE844"></path>
                    <path d="M13.6,27.9321828 L13.8404624,27.9272192 C14.0604459,27.8455101 14.2678778,27.8145828 14.4,28.1043828 L14.383815,28.129201 C14.1126342,28.1154556 13.8437655,28.0902556 13.6,27.9321828" id="Fill-113" fill="#FDE844"></path>
                    <path d="M12.8,27.9141593 C13.0954492,27.887432 13.3670945,27.9321047 13.6,28.0928502 C13.3120187,28.0970502 13.0436406,28.0424502 12.8,27.9141593" id="Fill-115" fill="#FDE844"></path>
                    <path d="M33.7246639,20.2447519 C33.5993217,20.373334 33.4902002,20.5125678 33.4459618,20.6944087 C32.8524295,21.5309529 32.2212947,22.334781 31.5112679,23.069753 C30.3599628,24.0150974 29.2149249,24.9680503 27.9290613,25.720902 C27.1456725,26.1796889 26.3047737,26.5060895 25.489312,26.8914553 C24.7387334,27.1185662 23.9888921,27.3494813 23.2364701,27.5705055 C23.0853222,27.6150147 22.9234833,27.6211014 22.7660682,27.6450679 C21.9229575,27.778215 21.083902,27.9433174 20.2312063,28 C19.941076,27.9752727 19.9554535,27.8151157 20.1021776,27.6393616 C20.5482484,27.1056319 21.0676813,26.6597793 21.6711671,26.3269116 C21.7880303,26.2626205 21.9071054,26.2610988 21.8816683,26.0579544 C21.8658162,25.9305136 22.0114344,25.828561 22.1142887,25.742586 C23.6567352,24.4522004 25.1523627,23.1039908 26.6177606,21.7230652 C28.2372557,20.1975798 29.9813556,18.8215996 31.5665659,17.256931 C31.9064645,16.9214003 32.3046104,16.6543452 32.651882,16.32376 C32.8686503,16.1175722 33.0990588,15.9353509 33.242465,15.6576441 C33.3173017,15.5130843 33.4290037,15.3795568 33.618123,15.3806981 C33.6748956,15.390589 33.6472466,15.4826507 33.7124983,15.4841724 C33.654251,15.428631 33.7176594,15.3917303 33.7324056,15.3460798 C34.0302777,15.0744597 34.2920217,14.7602326 34.6322889,14.5422518 C34.8203022,14.4212781 35.0193752,14.2847072 35.1981721,14.5635553 C35.2202913,15.8566039 35.0426003,17.1161755 34.6138562,18.3342812 C34.4346906,19.0293091 34.0343329,19.6143955 33.7246639,20.2447519" id="Fill-117" fill="#FDE319"></path>
                    <path d="M19.6200862,28.6089824 C20.347547,28.6136225 21.0622927,28.5072867 21.7751118,28.3715637 C21.980866,28.3325095 22.1966383,28.3468164 22.4077869,28.3363762 C21.2861564,28.6441698 20.1398662,28.7686793 18.9808609,28.8 C17.930127,28.7640392 16.8747694,28.8591613 15.8275033,28.6994644 C15.6564267,28.5838485 15.4445075,28.7230516 15.2734309,28.609369 L15.2734309,28.6097557 C15.1905898,28.5181136 15.1740215,28.4036577 15.2433769,28.3135624 C15.5863007,27.8700457 15.9635169,27.4601698 16.4432249,27.1589497 C16.586174,27.2030306 16.7175639,27.2904193 16.8358533,27.2811391 C16.9368039,27.2966061 16.8635955,27.1922037 16.8732282,27.2532985 C16.8743841,27.2602586 16.8597424,27.2625787 16.8300737,27.262192 C16.7711216,27.2614186 16.7125549,27.2614186 16.6566853,27.2382181 C16.5326162,27.0336668 16.681345,26.9188242 16.8069552,26.8105551 C18.1956039,25.6114748 19.5815555,24.4096877 20.9636539,23.2032604 C22.0783489,22.2299985 23.1872642,21.2497764 24.3000326,20.2741944 C25.8420337,18.9227639 27.3770993,17.5635999 28.9271919,16.221063 C30.313914,15.0204359 31.6674997,13.7795946 33.0754138,12.6052614 C33.5670663,12.1949988 34.0317473,11.7592157 34.51107,11.3385129 C34.6285888,11.2352705 34.7568962,11.1409217 34.9252757,11.2457108 C35.1433598,11.565878 35.1711019,11.9359263 35.2,12.3052013 C34.8882861,12.5070459 34.6046997,12.7494913 34.2918299,12.9486292 C34.1184415,13.0588317 33.9870516,13.1933947 33.9007427,13.3766788 C33.8683769,13.4072262 33.8302314,13.4238532 33.7863063,13.4257866 C33.6903647,13.4172797 33.6079089,13.4381602 33.5358564,13.5120152 C32.1256305,14.9577945 30.5319981,16.1970891 29.0277572,17.5369193 C27.2803871,19.0929011 25.507972,20.6194955 23.7590607,22.1735439 C22.4817659,23.3080495 21.1609314,24.393834 19.8886456,25.534913 C18.8579477,26.4590672 17.8064432,27.3596342 16.770351,28.2776016 C16.7025369,28.3375362 16.5884858,28.4098445 16.6320256,28.4960731 C16.7225729,28.6754905 16.9059793,28.5509811 17.0466166,28.577275 C17.300149,28.5676081 17.5532961,28.5656747 17.8068285,28.5703148 C18.4117615,28.5621946 19.0170798,28.5347407 19.6200862,28.6089824" id="Fill-119" fill="#FDE423"></path>
                    <path d="M34.829173,11.9073337 C34.789481,11.5225059 34.7416798,11.1396081 34.5218798,10.7956948 C34.4215827,10.679899 34.3200052,10.5644893 34.3067745,10.4089371 C34.2943974,10.3456354 34.2854347,10.2815618 34.2756184,10.2174881 C34.2504374,9.91178741 34.0199675,9.63657957 34.1117286,9.31389549 C34.0101511,9.06647862 33.9081469,8.81944774 33.8065694,8.57203088 C33.7045651,8.46395487 33.8300431,8.25166271 33.6,8.20225653 C33.6034144,8.13470903 33.6068287,8.06754751 33.6106699,8 C33.8594921,8.054038 33.8748568,8.25822447 33.9337546,8.42612827 C34.2333656,9.28224466 34.5257209,10.139905 34.8202103,10.9971793 C34.9819661,11.9200713 35.1228088,12.8425772 35.1902426,13.7782067 C35.2414582,14.4895784 35.0711665,15.1858967 35.1368931,15.8907067 C34.9875144,16.7348575 34.8159424,17.5743765 34.5210262,18.3888064 C34.4894433,18.3942102 34.4574336,18.3976841 34.4254238,18.4 C34.5914476,17.6037114 34.8825226,16.8336698 34.9802589,16.0207838 C35.0417176,15.5116686 35.009281,15.0071853 35.0357424,14.501158 C34.7796647,14.1800178 34.9170931,13.8121734 34.8829494,13.4647862 C34.9111179,13.1305226 34.9085571,12.8005048 34.7822255,12.4766627 C34.7083897,12.2867577 34.6955858,12.089133 34.829173,11.9073337" id="Fill-121" fill="#FDE946"></path>
                    <path d="M12,25.6 C11.8650786,25.8726457 11.5037637,26.0138373 11.2167699,26.1952594 C11.1108147,26.2623959 10.969414,26.3046765 10.9023344,26.4 C10.4297284,26.2777707 10.0680324,26.049968 9.6,25.8111467 C10.4606003,25.7355541 11.2301096,25.6676489 12,25.6" id="Fill-123" fill="#FDE739"></path>
                    <path d="M34.1314397,9.6 C34.2210843,9.90328836 34.3103554,10.2069563 34.4,10.5102447 C34.1542244,10.5223914 33.9532711,10.6176672 33.7627764,10.7850642 C32.2055751,12.1534678 30.6547236,13.5290836 29.09939,14.8990057 C27.9153343,15.942105 26.7398696,16.9954532 25.5520788,18.0343772 C24.2630642,19.1625036 22.9818936,20.2997401 21.700723,21.4373561 C20.7568401,22.2751001 19.8237893,23.1257499 18.8679539,23.9498288 C17.9461087,24.7443 17.0175401,25.5368734 16.1543374,26.3916986 C15.7434663,26.7986137 15.2392155,27.0738128 14.8585995,27.5088171 C14.7248796,27.6617898 14.594895,27.7874324 14.5892922,28 C14.4716337,27.9977225 14.3539751,27.995445 14.2366901,27.9935471 C14.0256518,27.9347114 13.814987,27.8758757 13.6039487,27.8174196 C13.5692114,27.5422206 13.7705383,27.4036721 13.9378748,27.2636052 C14.5769661,26.7291496 15.161897,26.1350992 15.8084587,25.6063374 C16.8961464,24.7173495 17.9580613,23.7919214 18.9829978,22.8289145 C19.8028723,22.0583571 20.6608457,21.334109 21.4941669,20.5813921 C22.5829752,19.5982671 23.6908329,18.6375376 24.7897262,17.6661798 C25.3055561,17.2099187 25.8187714,16.750621 26.3349749,16.2943599 C27.6803908,15.1051203 29.0306625,13.9215745 30.3708491,12.7262615 C31.052895,12.1177869 31.7166385,11.488435 32.3904671,10.8704708 C32.5275486,10.7448282 32.6272782,10.5406115 32.8756684,10.6415811 C33.0672837,10.7197755 33.0377757,10.5261872 33.0949241,10.4392623 C33.3515318,10.0463919 33.6006691,9.6428931 34.1314397,9.6" id="Fill-125" fill="#FDE528"></path>
                    <path d="M35.0804525,10.471403 C35.0240244,10.6162764 35.2811699,10.6801124 35.173237,10.8383645 C34.8138393,10.91061 34.6366021,11.2305546 34.4165704,11.4618168 C33.9272745,11.9770918 33.3167908,12.334497 32.8032574,12.8138405 C32.2726819,13.3096207 31.7288515,13.7912577 31.1823701,14.2686898 C29.6686583,15.5916624 28.1485085,16.9062255 26.6363115,18.2303448 C25.8281402,18.9375102 25.0336024,19.6607301 24.2284608,20.3709534 C23.0832357,21.380862 21.9330875,22.3846546 20.787105,23.3934164 C19.800939,24.2611274 18.8083349,25.1223401 17.8403471,26.0103104 C17.639251,26.1945557 17.298789,26.2648899 17.2681133,26.6173259 C17.2078981,26.6693121 17.1473042,26.6708411 17.087089,26.6177081 C16.6871691,27.071823 16.0819874,27.3458973 15.9043715,27.9945782 C15.6926715,27.9605578 15.460521,28.0721752 15.2673779,27.9047491 C15.1166505,27.7036848 15.2484423,27.5618694 15.373796,27.4273169 C15.5089962,27.2828258 15.6786591,27.1777066 15.8259781,27.0454476 C18.0577278,25.0485655 20.3129576,23.0776766 22.5579622,21.0960846 C24.5484724,19.3388743 26.559433,17.604599 28.5423689,15.8389792 C30.1515161,14.4063004 31.8053513,13.0259901 33.3845803,11.5573796 C33.7511735,11.2167935 34.1586676,10.898378 34.555179,10.5799625 C34.7002257,10.463758 34.8657228,10.3062704 35.0804525,10.471403" id="Fill-127" fill="#FDE526"></path>
                    <path d="M34.3992512,10.7074943 C34.1779725,10.669578 34.0225908,10.8201059 33.8829344,10.938784 C33.1629364,11.5499954 32.453422,12.1737192 31.7498982,12.8038888 C30.7359853,13.7119852 29.7291862,14.6269065 28.6740878,15.4879866 C28.0143704,16.0263986 27.4100664,16.6345768 26.7728139,17.2021844 C26.0801481,17.8190833 25.3762499,18.4230906 24.6809632,19.036577 C23.7524167,19.8559491 22.8298608,20.6821462 21.9005654,21.5003808 C20.8346089,22.4388103 19.7607898,23.3692773 18.6959566,24.3096025 C18.0897804,24.8446021 17.4985808,25.396664 16.8935279,25.9324219 C16.3045748,26.4537716 15.7642955,27.0316166 15.1169338,27.4850961 C14.9428314,27.6071867 14.7829566,27.749373 14.8110377,28 C14.7211783,27.9984833 14.6316934,27.9969667 14.541834,27.9950709 C14.2599004,27.7789477 14.4564677,27.6056701 14.6305701,27.5218749 C15.0577764,27.3144726 15.2094141,26.7165319 15.7699117,26.7131194 C15.7437028,26.3252352 16.0978983,26.2622941 16.3042004,26.0761249 C17.3821381,25.1031915 18.4552084,24.1241916 19.5443785,23.1641499 C21.0251856,21.8586902 22.5247134,20.5744638 24.0062693,19.2697625 C25.0845814,18.3199581 26.1295707,17.3310999 27.2206129,16.3972205 C28.4475674,15.3469378 29.6329619,14.2488806 30.8629116,13.2016312 C31.5522077,12.6146863 32.222783,11.9932374 32.8761353,11.3581387 C33.2097381,11.0335749 33.6062425,10.681332 34.0420603,10.4322217 C34.2086745,10.3370517 34.2854293,10.4784796 34.4,10.5251167 C34.4,10.586162 34.3996256,10.6468282 34.3992512,10.7074943" id="Fill-129" fill="#FDE526"></path>
                    <path d="M15.2,27.955705 C15.4670376,27.9843414 15.7652295,27.8823959 16,28.0446687 C15.7329624,28.0190868 15.4364395,28.1141596 15.2,27.955705" id="Fill-131" fill="#FDE526"></path>
                    <path d="M35.1973048,13.3684795 C35.1980749,13.7339009 35.1992299,14.099703 35.2,14.4651245 C34.7830166,14.4274404 34.5654768,14.7517519 34.2844077,14.9595853 C34.0961298,15.0985216 33.995638,15.352794 33.7211143,15.3790587 C33.6529647,15.3067357 33.6837668,15.2161416 33.6745261,15.1331605 C33.6649005,15.2161416 33.6960876,15.3067357 33.6279379,15.3790587 C33.2059492,15.6398021 33.0346125,16.1186565 32.6403457,16.4285034 C31.5176092,17.3116052 30.4264449,18.2381008 29.3714731,19.199616 C28.415838,20.0705371 27.4005239,20.8706578 26.433338,21.7278756 C25.126174,22.8869467 23.8621329,24.1015923 22.4394611,25.131624 C22.1198893,25.3630576 21.8399752,25.6481624 21.5438901,25.9111897 C21.4006603,26.0383259 21.2462648,26.1723138 21.7079112,26.2313141 C20.9132171,26.4193539 19.6946091,27.3732561 19.4901602,27.894743 C18.8829739,28.1018151 18.2565362,27.9293819 17.6420344,27.9857177 C17.5092003,27.7405808 17.7225048,27.6271479 17.8484084,27.4965859 C18.1545043,27.1798873 18.5460759,26.9511182 18.8125141,26.5917872 C18.8490916,26.5659031 18.8891343,26.5468708 18.9311021,26.5324062 C19.2595295,26.345889 19.5055613,26.0569777 19.7862454,25.8171698 C22.0297932,23.8983266 24.2409987,21.9417994 26.5072631,20.0499821 C28.268758,18.5791608 29.9386167,17.0059454 31.7251384,15.563292 C32.2695654,15.1232637 32.8317037,14.6878031 33.2637031,14.1233032 C33.3564945,14.0022573 33.4566013,13.8576113 33.629093,13.882734 C33.8547184,13.9154697 33.7211143,14.1510904 33.7892639,14.2717556 C33.6983977,13.9341214 33.7372854,13.6691909 34.0968999,13.4967576 C34.3321509,13.3837054 34.5265891,13.2048011 34.6979258,13.0053419 C34.7984177,12.8884832 34.9231661,12.7449792 35.082952,12.8214893 C35.2246417,12.8888639 35.1318504,13.0696713 35.1499466,13.1994721 C35.1584172,13.2584724 35.1491765,13.3208986 35.1973048,13.3684795" id="Fill-133" fill="#FDE31C"></path>
                    <path d="M33.5544567,16.042 L33.5733543,15.8388727 L33.6266457,15.8388727 C33.6330709,15.9068364 33.6394961,15.9744182 33.6455433,16.042 C33.6304252,16.0817091 33.6153071,16.1214182 33.600189,16.1611273 C33.5846929,16.1214182 33.5695748,16.0817091 33.5544567,16.042" id="Fill-135" fill="#FDE52B"></path>
                    <path d="M35.1846937,13.573237 C35.0192472,13.4476295 35.1497618,13.2410226 35.0119537,13.0160246 C34.6787574,13.4378469 34.2557363,13.7223227 33.8553633,14.0357546 C33.7494161,14.1187104 33.8004704,14.4098383 33.7778223,14.6187929 C33.6380948,14.4920115 33.8054607,14.2431441 33.63464,14.1985358 C33.4342616,14.1464928 33.3943394,14.3875341 33.2880084,14.5084461 C32.6937827,15.1842227 32.0085807,15.7629566 31.3145497,16.3225169 C30.5575646,16.9333375 29.891172,17.6419834 29.1541479,18.2731517 C28.0908372,19.1833175 27.0424972,20.1118744 25.9922379,21.0380835 C25.2068467,21.7306861 24.431436,22.4346363 23.6471963,23.1284127 C22.5520246,24.0972737 21.4518627,25.0594825 20.3559232,26.0271695 C20.0565072,26.2916889 19.8146712,26.6266424 19.4304206,26.7859019 C19.3801341,26.8066408 19.3060478,26.888814 19.3156445,26.9193355 C19.4457753,27.3399839 19.1229434,27.1513769 18.9716999,27.1908983 C18.8020309,27.1239858 18.6139362,27.2750279 18.4492574,27.1455074 C18.3129847,26.933031 18.4903311,26.8246406 18.6081782,26.7287719 C19.4837781,26.017387 20.3313558,25.2688284 21.1497596,24.494444 C22.3420495,23.3667149 23.6126483,22.3344633 24.8222122,21.2282558 C26.0313923,20.1228308 27.2401886,19.0142755 28.4958165,17.9620675 C29.6451134,16.9990761 30.7264659,15.9574332 31.855034,14.9701811 C32.4131762,14.4822289 33.0173823,14.0463198 33.5121865,13.4855856 C33.6154467,13.3787605 33.5951017,13.203849 33.7125649,13.1048499 C33.7248487,12.9733728 33.669188,12.8160699 33.818896,12.7319402 C34.1494052,12.5468549 34.4515083,12.3261612 34.7133054,12.0479463 C34.8096559,11.9454255 34.907542,12.0334682 35.0015893,12.0714243 C35.011186,12.5785502 35.2637702,13.0547634 35.1846937,13.573237" id="Fill-137" fill="#FDE420"></path>
                    <path d="M33.5500205,13.3875653 C32.4805161,14.34367 31.4154788,15.3054815 30.3396459,16.2543574 C29.3993159,17.0841482 28.4251101,17.8762731 27.5052544,18.7292721 C26.7261132,19.4517722 25.9000671,20.1202465 25.1365608,20.8579651 C24.1560266,21.8056995 23.0813106,22.6396754 22.087375,23.5706694 C21.2281978,24.3749692 20.3262106,25.131711 19.4592158,25.92726 C19.2410712,26.1277643 18.9443796,26.2441861 18.8081322,26.5360015 C18.7589938,26.6162793 18.6707681,26.661174 18.6264691,26.7460174 C18.2244277,27.2124655 17.7483065,27.5952118 17.2893093,27.9973616 C17.2148572,27.9973616 17.1396606,28.00421 17.0663253,27.9958398 C16.9706544,27.9848063 16.8247282,28.0456805 16.8020203,27.9064309 C16.7882467,27.8193047 16.8470639,27.6948932 16.9125817,27.6252684 C17.0339386,27.4955304 17.1876822,27.3977512 17.3213237,27.2786662 C19.1375828,25.6594138 20.9195938,24.0009736 22.7730789,22.4247135 C23.830671,21.5256784 24.8361466,20.5631059 25.8728921,19.6381993 C27.1780374,18.4739811 28.4928615,17.3207964 29.8002404,16.1592415 C30.8738397,15.2054197 31.944461,14.2485541 33.010615,13.286362 C33.1066583,13.1999968 33.1450011,13.0485724 33.2380662,12.9568807 C33.3181022,12.8777443 33.4271746,12.6616411 33.5500205,12.9317701 C33.6177719,13.083575 33.6155384,13.2357604 33.5500205,13.3875653" id="Fill-139" fill="#FDE420"></path>
                    <path d="M17.6,28.8 C17.7672727,28.2447431 18.1754545,28.0240093 18.4409091,27.6026472 C18.51,27.4935636 18.6184848,27.4379524 18.6181818,27.2599964 C18.8121212,27.1804295 19.0060606,27.179574 19.2,27.2599964 C19.1466667,27.6094917 18.9384848,27.7716198 18.7663636,27.9773814 C18.5666667,28.2152264 18.3318182,28.4098658 18.2545455,28.8 L17.6,28.8 Z" id="Fill-141" fill="#FDE420"></path>
                    <path d="M16.8,27.1561097 C16.9102498,27.1561097 17.0198105,27.1561097 17.1300603,27.1557278 L17.6,27.1557278 C17.3250646,27.2492733 17.0515073,27.2958551 16.8,27.1561097" id="Fill-143" fill="#FDE633"></path>
                    <path d="M33.5532284,13.6 C33.5532284,13.3337226 33.5532284,13.0667779 33.5532284,12.8005005 C33.5830867,12.7998332 33.6133229,12.7998332 33.6435591,12.8005005 C33.6216378,13.0694473 33.7040315,13.3757664 33.5532284,13.6" id="Fill-145" fill="#FDE62F"></path>
                    <path d="M19.1114405,27.2484928 C18.8742937,27.2484928 18.6371468,27.2484928 18.4,27.2484928 C18.4637332,27.1404383 18.5693377,27.1602928 18.6667902,27.1560928 C18.8446503,27.1870201 19.0443724,27.0824019 19.2,27.2484928 C19.1707272,27.2484928 19.1410838,27.2484928 19.1114405,27.2484928" id="Fill-147" fill="#FDE62B"></path>
                    <path d="M19.8055433,27.2281864 C19.9193071,27.1247136 20.0134173,27.1804591 20.1944567,27.1529682 C20.0179528,27.2824046 19.9249764,27.2465136 19.8055433,27.2281864" id="Fill-149" fill="#FDE420"></path>
                </g>
                <g id="分组" transform="translate(265.600000, 278.400000)">
                    <path d="M4.2748,12.72032 C5.366,13.59952 6.5612,13.97952 7.6908,14.48512 C8.3324,14.77232 8.9844,15.04432 9.5004,15.54272 C10.15,16.16912 10.326,17.07872 9.8812,17.71232 C9.3732,18.43472 8.6116,18.66352 7.85,18.29632 C5.2036,17.01792 2.542,15.74192 0.5284,13.49472 C-0.1948,12.68672 -0.2116,11.48672 0.7036,10.97872 C3.0876,9.65712 4.9764,7.61152 7.4628,6.46352 C7.9548,6.23632 8.454,5.99952 8.9748,5.86992 C9.7244,5.68352 10.4764,5.73232 10.9284,6.48192 C11.3916,7.24912 11.1484,7.96432 10.5948,8.58592 C10.058,9.18992 9.3764,9.61872 8.6796,10.00912 C7.206,10.83632 5.7436,11.67792 4.2748,12.72032" id="Fill-1" fill="#389FFE"></path>
                    <g transform="translate(23.200000, 6.241040)">
                        <mask id="mask-7" fill="white">
                            <use xlink:href="#path-6"></use>
                        </mask>
                        <g id="Clip-4"></g>
                        <path d="M5.12168,11.70968 C4.16568,11.68888 3.56808,11.52088 3.28008,10.90408 C2.98568,10.27128 3.14408,9.64088 3.58728,9.11208 C4.25448,8.31608 5.12808,7.76648 5.99288,7.22168 C6.52008,6.88888 6.46808,6.66008 5.99208,6.34728 C4.92328,5.64328 3.86888,4.91928 2.81048,4.19928 C2.11848,3.72728 1.47768,3.19528 1.03288,2.47448 C0.69288,1.92408 0.57848,1.33848 0.99608,0.76808 C1.37848,0.24488 1.96408,0.20888 2.47688,0.39128 C5.57528,1.48488 8.49528,2.93288 10.93528,5.17368 C12.04568,6.19368 12.13128,7.82648 11.08808,8.78888 C9.32888,10.41128 7.01768,10.97208 5.12168,11.70968" id="Fill-3" fill="#389FFE" mask="url(#mask-7)"></path>
                    </g>
                    <g transform="translate(12.800000, 0.641040)">
                        <mask id="mask-9" fill="white">
                            <use xlink:href="#path-8"></use>
                        </mask>
                        <g id="Clip-6"></g>
                        <path d="M0.7264,19.798 C0.7416,19.7396 0.7576,19.5396 0.8416,19.3732 C2.5792,15.9132 3.788,12.2268 5.384,8.7052 C6.6632,5.882 8.5824,3.4772 10.2768,0.9236 C10.4472,0.6668 10.7088,0.4388 10.9776,0.2844 C11.2552,0.1252 11.6096,0.0932 11.8792,0.3324 C12.196,0.6124 12.26,0.9876 12.1352,1.3852 C11.8624,2.25 11.384,3.0292 10.8544,3.7324 C7.6752,7.9484 5.82,12.8268 3.7984,17.6268 C3.4024,18.566 3.0264,19.5252 2.408,20.3524 C2.1096,20.7516 1.6936,20.8828 1.2144,20.7492 C0.8048,20.6356 0.6936,20.3164 0.7264,19.798" id="Fill-5" fill="#38A0FE" mask="url(#mask-9)"></path>
                    </g>
                </g>
            </g>
        </g>
    </g>
</svg>